<?xml version="1.0" encoding="UTF-8"?>
<svg xmlns="http://www.w3.org/2000/svg" xmlns:xlink="http://www.w3.org/1999/xlink" width="189px" height="200px" viewBox="0 0 189 200" version="1.1">
<g id="surface1">
<path style=" stroke:none;fill-rule:nonzero;fill:rgb(0%,0%,0%);fill-opacity:1;" d="M 39.664062 6.871094 L 7.703125 36.523438 L 7.703125 94.832031 L 37.617188 121.925781 L 7.703125 121.925781 L 7.703125 164.664062 L 39.769531 193.464844 L 149.0625 193.464844 L 181.152344 164.664062 L 181.152344 103.273438 L 153.503906 78.398438 L 181.152344 78.398438 L 181.152344 36.523438 L 149.171875 6.871094 Z M 42.910156 13.632812 L 145.921875 13.632812 L 173.535156 39.246094 L 173.535156 71.625 L 132.765625 71.625 L 132.765625 81.820312 L 146.75 81.820312 L 173.535156 106.234375 L 173.535156 161.878906 L 145.898438 186.695312 L 42.953125 186.695312 L 15.320312 161.878906 L 15.320312 128.679688 L 54.476562 128.679688 L 54.476562 117.082031 L 42.9375 117.082031 L 15.320312 92.070312 L 15.320312 39.246094 L 42.914062 13.632812 Z M 86.953125 48.902344 L 112.054688 66.359375 L 112.054688 48.902344 Z M 75.300781 64.320312 L 75.300781 81.820312 L 100.882812 81.820312 Z M 75.335938 124.625 L 75.335938 142.820312 L 112.054688 142.820312 L 112.054688 136.472656 L 126.8125 136.472656 L 126.8125 130.660156 L 112.054688 130.660156 L 112.054688 124.625 Z M 75.335938 124.625 "/>
<path style=" stroke:none;fill-rule:nonzero;fill:rgb(80%,0%,0%);fill-opacity:1;" d="M 44.539062 17.023438 L 19.125 40.605469 L 19.125 90.679688 L 44.539062 113.703125 L 55.890625 113.703125 L 67.664062 106.246094 L 119.71875 106.246094 L 132.789062 114.660156 L 132.789062 130.660156 L 130.609375 130.660156 L 130.609375 136.472656 L 132.789062 136.472656 L 132.789062 153.328125 L 119.898438 161.578125 L 67.875 161.578125 L 54.476562 152.902344 L 54.476562 132.070312 L 19.125 132.070312 L 19.125 160.484375 L 44.539062 183.308594 L 144.296875 183.308594 L 169.726562 160.484375 L 169.726562 107.605469 L 145.03125 85.203125 L 132.765625 85.203125 L 132.765625 90.527344 L 113.625 90.527344 L 105.828125 85.203125 L 75.300781 85.203125 L 75.300781 90.445312 L 54.476562 90.417969 L 54.476562 40.308594 L 74.59375 40.308594 L 82.085938 45.523438 L 112.054688 45.523438 L 112.054688 40.308594 L 132.765625 40.308594 L 132.765625 68.242188 L 169.726562 68.242188 L 169.726562 40.605469 L 144.296875 17.023438 Z M 58.28125 43.6875 L 58.28125 87.070312 L 71.5 87.070312 L 71.5 57.453125 L 114.910156 87.148438 L 128.953125 87.148438 L 128.953125 43.6875 L 115.867188 43.6875 L 115.867188 73.320312 L 73.28125 43.6875 Z M 68.882812 109.632812 L 58.28125 116.34375 L 58.28125 151.183594 L 68.992188 158.207031 L 118.679688 158.207031 L 129 151.609375 L 129 139.863281 L 115.867188 139.863281 L 115.867188 146.203125 L 71.53125 146.203125 L 71.53125 121.246094 L 115.867188 121.246094 L 115.867188 127.277344 L 129 127.277344 L 129 116.375 L 118.484375 109.632812 Z M 68.882812 109.632812 "/>
<path style=" stroke:none;fill-rule:nonzero;fill:rgb(100%,100%,100%);fill-opacity:1;" d="M 186.847656 166.753906 L 186.847656 101.367188 L 167.375 83.472656 L 186.847656 83.472656 L 186.847656 34.480469 L 151.609375 1.785156 L 37.226562 1.785156 L 1.992188 34.480469 L 1.992188 96.910156 L 24.007812 116.847656 L 1.992188 116.847656 L 1.992188 166.753906 L 37.398438 198.542969 L 151.453125 198.542969 Z M 39.664062 6.871094 L 149.171875 6.871094 L 181.152344 36.523438 L 181.152344 78.398438 L 153.5 78.398438 L 181.152344 103.273438 L 181.152344 164.664062 L 149.0625 193.464844 L 39.769531 193.464844 L 7.703125 164.664062 L 7.703125 121.925781 L 37.617188 121.925781 L 7.703125 94.832031 L 7.703125 36.523438 Z M 42.910156 13.632812 L 15.320312 39.246094 L 15.320312 92.070312 L 42.9375 117.082031 L 54.476562 117.082031 L 54.476562 128.679688 L 15.320312 128.679688 L 15.320312 161.878906 L 42.953125 186.695312 L 145.898438 186.695312 L 173.535156 161.878906 L 173.535156 106.234375 L 146.75 81.820312 L 132.765625 81.820312 L 132.765625 71.625 L 173.535156 71.625 L 173.535156 39.246094 L 145.921875 13.632812 Z M 44.539062 17.023438 L 144.296875 17.023438 L 169.726562 40.605469 L 169.726562 68.242188 L 132.765625 68.242188 L 132.765625 40.304688 L 112.054688 40.304688 L 112.054688 45.523438 L 82.085938 45.523438 L 74.59375 40.304688 L 54.476562 40.304688 L 54.476562 90.417969 L 75.300781 90.445312 L 75.300781 85.203125 L 105.828125 85.203125 L 113.625 90.527344 L 132.765625 90.527344 L 132.765625 85.203125 L 145.03125 85.203125 L 169.726562 107.605469 L 169.726562 160.484375 L 144.296875 183.308594 L 44.539062 183.308594 L 19.125 160.484375 L 19.125 132.070312 L 54.476562 132.070312 L 54.476562 152.902344 L 67.875 161.578125 L 119.898438 161.578125 L 132.789062 153.328125 L 132.789062 136.472656 L 130.609375 136.472656 L 130.609375 130.660156 L 132.789062 130.660156 L 132.789062 114.660156 L 119.71875 106.246094 L 67.664062 106.246094 L 55.890625 113.703125 L 44.539062 113.703125 L 19.125 90.679688 L 19.125 40.605469 Z M 58.28125 43.6875 L 73.28125 43.6875 L 115.867188 73.320312 L 115.867188 43.6875 L 128.953125 43.6875 L 128.953125 87.148438 L 114.910156 87.148438 L 71.5 57.453125 L 71.5 87.070312 L 58.28125 87.070312 Z M 86.953125 48.902344 L 112.054688 48.902344 L 112.054688 66.359375 Z M 75.300781 64.320312 L 100.882812 81.820312 L 75.300781 81.820312 Z M 68.882812 109.632812 L 118.484375 109.632812 L 129 116.375 L 129 127.277344 L 115.867188 127.277344 L 115.867188 121.246094 L 71.53125 121.246094 L 71.53125 146.203125 L 115.867188 146.203125 L 115.867188 139.863281 L 129 139.863281 L 129 151.609375 L 118.679688 158.207031 L 68.992188 158.207031 L 58.28125 151.183594 L 58.28125 116.34375 Z M 75.335938 124.625 L 112.054688 124.625 L 112.054688 130.660156 L 126.8125 130.660156 L 126.8125 136.472656 L 112.054688 136.472656 L 112.054688 142.820312 L 75.335938 142.820312 Z M 75.335938 124.625 "/>
</g>
</svg>
