<svg width="169" height="165" xmlns="http://www.w3.org/2000/svg" xmlns:xlink="http://www.w3.org/1999/xlink" xml:space="preserve" overflow="hidden"><g transform="translate(-2328 55)"><g><path d="M2412.88-26.433C2442.98-26.433 2467.24-1.90311 2467.24 28 2467.24 31.7379 2467.01 35.2422 2466.31 38.7465 2436.91-5.17376 2436.91-5.17376 2436.91-5.17376 2425.71 6.03991 2425.71 6.03991 2425.71 6.03991 2414.28-12.6495 2414.28-12.6495 2414.28-12.6495 2403.09 6.03991 2403.09 6.03991 2403.09 6.03991 2392.12-4.94015 2392.12-4.94015 2392.12-4.94015 2360.16 40.3818 2360.16 40.3818 2360.16 40.3818 2359.23 36.4103 2358.76 32.2051 2358.76 28 2358.76-1.90311 2383.02-26.433 2412.88-26.433ZM2344.53 0.433072C2352.23 3.00287 2352.23 3.00287 2352.23 3.00287 2351.76 4.17096 2351.76 4.17096 2351.76 4.17096 2344.53 6.03991 2344.53 6.03991 2344.53 6.03991 2350.36 8.14247 2350.36 8.14247 2350.36 8.14247 2350.13 9.07695 2350.13 9.07695 2350.13 9.07695 2342.43 6.50714 2342.43 6.50714 2342.43 6.50714 2342.9 5.33905 2342.9 5.33905 2342.9 5.33905 2350.13 3.47011 2350.13 3.47011 2350.13 3.47011 2344.3 1.36755 2344.3 1.36755 2344.3 1.36755 2344.53 0.433072 2344.53 0.433072 2344.53 0.433072ZM2345.23 10.245C2346.63 10.4787 2347.56 11.1795 2348.26 11.8804 2348.73 12.8148 2348.96 13.7493 2348.73 14.9174 2348.73 15.6183 2348.5 16.3191 2348.03 16.7863 2347.56 17.2536 2346.86 17.7208 2346.16 17.9544 2345.46 18.1881 2344.76 18.1881 2344.06 17.9544 2343.13 17.7208 2342.43 17.4872 2341.96 17.02 2341.5 16.7863 2341.03 16.0855 2340.8 15.3846 2340.56 14.9174 2340.56 14.2165 2340.56 13.5157 2340.8 12.8148 2341.03 12.114 2341.5 11.6467 2341.96 10.9459 2342.66 10.7123 2343.13 10.4787 2343.83 10.245 2344.53 10.245 2345.23 10.245ZM2345 11.4131C2344.06 11.1795 2343.36 11.4131 2342.66 11.8804 2341.96 12.114 2341.73 12.8148 2341.5 13.5157 2341.26 14.4502 2341.5 15.151 2341.96 15.6183 2342.43 16.3191 2343.13 16.7863 2344.3 16.7863 2345 17.02 2345.46 17.02 2345.93 16.7863 2346.4 16.7863 2346.86 16.5527 2347.33 16.0855 2347.56 15.6183 2347.8 15.3846 2348.03 14.6838 2348.03 13.9829 2348.03 13.2821 2347.56 12.5812 2347.1 12.114 2346.16 11.6467 2345 11.4131ZM2339.86 20.2906C2347.8 20.9915 2347.8 20.9915 2347.8 20.9915 2347.56 24.7294 2347.56 24.7294 2347.56 24.7294 2347.33 25.4302 2347.33 25.8975 2347.1 26.3647 2346.86 26.5983 2346.63 26.8319 2346.16 27.0655 2345.93 27.2992 2345.46 27.2992 2345 27.2992 2344.53 27.2992 2344.06 27.0655 2343.6 26.5983 2343.36 26.3647 2343.13 25.6638 2343.13 24.963 2342.9 25.1966 2342.66 25.4302 2342.66 25.4302 2342.2 25.6638 2341.96 26.1311 2341.5 26.3647 2339.17 27.5328 2339.17 27.5328 2339.17 27.5328 2339.17 26.1311 2339.17 26.1311 2339.17 26.1311 2341.03 25.1966 2341.03 25.1966 2341.03 25.1966 2341.5 24.963 2341.96 24.7294 2342.2 24.4957 2342.43 24.4957 2342.66 24.2621 2342.66 24.0285 2342.9 24.0285 2342.9 23.7949 2343.13 23.5613 2343.13 23.5613 2343.13 23.3277 2343.13 23.094 2343.13 21.6923 2343.13 21.6923 2343.13 21.6923 2339.63 21.4587 2339.63 21.4587 2339.63 21.4587 2339.86 20.2906 2339.86 20.2906 2339.86 20.2906ZM2344.06 21.9259C2344.06 24.2621 2344.06 24.2621 2344.06 24.2621 2343.83 24.7294 2343.83 24.963 2344.06 25.1966 2344.06 25.6638 2344.3 25.8975 2344.53 25.8975 2344.53 26.1311 2344.76 26.1311 2345.23 26.1311 2345.46 26.3647 2345.93 26.1311 2346.16 25.8975 2346.4 25.6638 2346.63 25.1966 2346.63 24.7294 2346.86 22.1596 2346.86 22.1596 2346.86 22.1596 2344.06 21.9259 2344.06 21.9259 2344.06 21.9259ZM2339.4 32.2051C2346.63 31.7379 2346.63 31.7379 2346.63 31.7379 2346.4 29.1681 2346.4 29.1681 2346.4 29.1681 2347.33 28.9345 2347.33 28.9345 2347.33 28.9345 2347.8 35.4758 2347.8 35.4758 2347.8 35.4758 2346.86 35.4758 2346.86 35.4758 2346.86 35.4758 2346.63 32.906 2346.63 32.906 2346.63 32.906 2339.4 33.3732 2339.4 33.3732 2339.4 33.3732 2339.4 32.2051 2339.4 32.2051 2339.4 32.2051ZM2340.1 38.9801C2348.26 37.5784 2348.26 37.5784 2348.26 37.5784 2348.26 38.7465 2348.26 38.7465 2348.26 38.7465 2345 39.2137 2345 39.2137 2345 39.2137 2345.7 43.4188 2345.7 43.4188 2345.7 43.4188 2348.96 42.9516 2348.96 42.9516 2348.96 42.9516 2349.2 43.8861 2349.2 43.8861 2349.2 43.8861 2341.26 45.0541 2341.26 45.0541 2341.26 45.0541 2341.03 44.1197 2341.03 44.1197 2341.03 44.1197 2344.76 43.4188 2344.76 43.4188 2344.76 43.4188 2344.06 39.4473 2344.06 39.4473 2344.06 39.4473 2340.33 39.9145 2340.33 39.9145 2340.33 39.9145 2340.1 38.9801 2340.1 38.9801 2340.1 38.9801ZM2342.2 48.792C2349.9 46.2222 2349.9 46.2222 2349.9 46.2222 2351.76 51.8291 2351.76 51.8291 2351.76 51.8291 2350.83 52.0627 2350.83 52.0627 2350.83 52.0627 2349.43 47.3903 2349.43 47.3903 2349.43 47.3903 2347.1 48.3248 2347.1 48.3248 2347.1 48.3248 2348.5 52.5299 2348.5 52.5299 2348.5 52.5299 2347.56 52.7635 2347.56 52.7635 2347.56 52.7635 2346.16 48.5584 2346.16 48.5584 2346.16 48.5584 2343.6 49.4929 2343.6 49.4929 2343.6 49.4929 2345 54.1653 2345 54.1653 2345 54.1653 2344.06 54.3989 2344.06 54.3989 2344.06 54.3989 2342.2 48.792 2342.2 48.792 2342.2 48.792ZM2345 56.7351C2353.63 55.8006 2353.63 55.8006 2353.63 55.8006 2354.1 56.7351 2354.1 56.7351 2354.1 56.7351 2348.26 63.2764 2348.26 63.2764 2348.26 63.2764 2347.8 62.3419 2347.8 62.3419 2347.8 62.3419 2349.66 60.2393 2349.66 60.2393 2349.66 60.2393 2348.03 57.2023 2348.03 57.2023 2348.03 57.2023 2345.46 57.6695 2345.46 57.6695 2345.46 57.6695 2345 56.7351 2345 56.7351 2345 56.7351ZM2348.96 57.2023C2350.13 59.5385 2350.13 59.5385 2350.13 59.5385 2351.76 57.9031 2351.76 57.9031 2351.76 57.9031 2352.23 57.4359 2352.7 56.9687 2352.93 56.5014 2352.46 56.7351 2352 56.7351 2351.53 56.9687 2348.96 57.2023 2348.96 57.2023 2348.96 57.2023ZM2351.76 63.9772C2351.3 64.4445 2351.06 64.6781 2350.83 65.1453 2350.6 65.6125 2350.6 66.0798 2350.6 66.7806 2350.6 67.2479 2350.83 67.7151 2351.3 68.416 2351.53 68.8832 2352 69.3504 2352.46 69.5841 2352.93 69.8177 2353.16 70.0513 2353.63 70.0513 2354.1 70.0513 2354.56 69.8177 2355.03 69.5841 2355.26 69.3504 2355.5 69.1168 2355.73 68.6496 2355.96 68.416 2355.96 67.9487 2355.96 67.4815 2355.73 67.0143 2355.73 66.547 2355.26 65.6125 2355.03 64.9117 2355.03 64.2108 2355.03 63.9772 2355.03 63.7436 2355.26 63.51 2355.5 63.2764 2355.73 63.2764 2355.96 63.0427 2356.43 63.2764 2356.66 63.2764 2357.13 63.7436 2357.36 64.2108 2357.83 64.9117 2357.83 65.3789 2357.83 65.6125 2357.83 66.0798 2357.59 66.547 2357.13 66.7806 2357.83 67.4815 2357.83 67.4815 2357.83 67.4815 2358.29 67.2479 2358.53 67.0143 2358.76 66.547 2358.76 66.0798 2358.99 65.6125 2358.76 65.1453 2358.76 64.6781 2358.53 64.2108 2358.29 63.7436 2357.83 63.2764 2357.59 62.8091 2357.13 62.5755 2356.89 62.3419 2356.43 62.1083 2355.96 62.1083 2355.5 62.1083 2355.26 62.3419 2354.8 62.5755 2354.56 62.8091 2354.33 63.0427 2354.1 63.2764 2354.1 63.51 2353.86 63.9772 2353.86 64.4445 2354.1 64.6781 2354.1 65.3789 2354.33 66.0798 2354.56 66.7806 2354.8 67.2479 2354.8 67.4815 2354.8 67.7151 2354.8 68.1824 2354.8 68.1824 2354.8 68.416 2354.56 68.6496 2354.33 68.8832 2354.1 68.8832 2353.86 69.1168 2353.63 69.1168 2353.4 68.8832 2353.16 68.8832 2352.93 68.6496 2352.46 68.416 2352.23 68.1824 2352 67.9487 2351.76 67.4815 2351.76 67.0143 2351.76 66.7806 2351.53 66.3134 2351.53 65.8462 2351.76 65.6125 2351.76 65.3789 2352 65.1453 2352.46 64.9117 2351.76 63.9772 2351.76 63.9772 2351.76 63.9772ZM2356.43 74.9573C2361.79 70.2849 2361.79 70.2849 2361.79 70.2849 2359.93 68.1824 2359.93 68.1824 2359.93 68.1824 2360.63 67.7151 2360.63 67.7151 2360.63 67.7151 2364.83 72.3875 2364.83 72.3875 2364.83 72.3875 2364.13 73.0883 2364.13 73.0883 2364.13 73.0883 2362.49 71.2194 2362.49 71.2194 2362.49 71.2194 2357.13 75.8917 2357.13 75.8917 2357.13 75.8917 2356.43 74.9573 2356.43 74.9573 2356.43 74.9573ZM2360.86 79.8633C2365.06 84.0684 2365.06 84.0684 2365.06 84.0684 2365.76 83.3675 2365.76 83.3675 2365.76 83.3675 2362.26 80.0969 2362.26 80.0969 2362.26 80.0969 2364.13 77.9943 2364.13 77.9943 2364.13 77.9943 2367.39 81.0313 2367.39 81.0313 2367.39 81.0313 2368.09 80.3305 2368.09 80.3305 2368.09 80.3305 2364.83 77.2934 2364.83 77.2934 2364.83 77.2934 2366.46 75.6581 2366.46 75.6581 2366.46 75.6581 2369.96 78.9288 2369.96 78.9288 2369.96 78.9288 2370.66 78.2279 2370.66 78.2279 2370.66 78.2279 2366.46 74.0228 2366.46 74.0228 2366.46 74.0228 2360.86 79.8633 2360.86 79.8633 2360.86 79.8633ZM2367.86 86.1709C2372.52 79.6296 2372.52 79.6296 2372.52 79.6296 2375.32 81.7322 2375.32 81.7322 2375.32 81.7322 2376.02 82.1994 2376.49 82.4331 2376.49 82.9003 2376.72 83.1339 2376.96 83.6012 2376.96 84.0684 2376.96 84.5356 2376.72 84.7692 2376.49 85.2365 2376.02 85.7037 2375.56 85.9373 2375.09 85.9373 2374.62 86.1709 2373.92 85.9373 2373.22 85.7037 2373.46 85.9373 2373.46 86.1709 2373.69 86.4046 2373.69 86.8718 2373.69 87.339 2373.69 87.8063 2373.46 90.3761 2373.46 90.3761 2373.46 90.3761 2372.52 89.4416 2372.52 89.4416 2372.52 89.4416 2372.52 87.5727 2372.52 87.5727 2372.52 87.5727 2372.52 86.8718 2372.52 86.6382 2372.52 86.1709 2372.52 85.9373 2372.52 85.7037 2372.52 85.4701 2372.29 85.2365 2372.29 85.2365 2372.29 85.0029 2372.06 85.0029 2372.06 84.7692 2371.82 84.5356 2370.66 83.8348 2370.66 83.8348 2370.66 83.8348 2368.56 86.8718 2368.56 86.8718 2368.56 86.8718 2367.86 86.1709 2367.86 86.1709 2367.86 86.1709ZM2371.36 83.1339C2373.22 84.5356 2373.22 84.5356 2373.22 84.5356 2373.46 84.7692 2373.92 85.0029 2374.16 85.0029 2374.39 85.0029 2374.62 85.0029 2374.86 85.0029 2375.09 85.0029 2375.32 84.7692 2375.56 84.5356 2375.79 84.302 2375.79 83.8348 2375.79 83.6012 2375.79 83.1339 2375.32 82.9003 2374.86 82.4331 2372.76 81.0313 2372.76 81.0313 2372.76 81.0313 2371.36 83.1339 2371.36 83.1339 2371.36 83.1339ZM2376.02 91.7778C2376.96 92.245 2376.96 92.245 2376.96 92.245 2379.76 86.6382 2379.76 86.6382 2379.76 86.6382 2380.69 94.3476 2380.69 94.3476 2380.69 94.3476 2381.62 94.8148 2381.62 94.8148 2381.62 94.8148 2385.36 87.5727 2385.36 87.5727 2385.36 87.5727 2384.42 87.1054 2384.42 87.1054 2384.42 87.1054 2381.39 92.7122 2381.39 92.7122 2381.39 92.7122 2380.69 85.2365 2380.69 85.2365 2380.69 85.2365 2379.76 84.7692 2379.76 84.7692 2379.76 84.7692 2376.02 91.7778 2376.02 91.7778 2376.02 91.7778ZM2399.59 100.655C2398.65 100.422 2398.65 100.422 2398.65 100.422 2399.82 94.114 2399.82 94.114 2399.82 94.114 2399.59 94.3476 2399.12 94.5812 2398.65 94.5812 2398.42 94.8148 2397.95 94.8148 2397.72 95.0484 2397.72 94.114 2397.72 94.114 2397.72 94.114 2398.42 93.8803 2398.89 93.6467 2399.35 93.4131 2399.82 93.1795 2400.29 92.7122 2400.52 92.4786 2400.99 92.4786 2400.99 92.4786 2400.99 92.4786 2399.59 100.655 2399.59 100.655 2399.59 100.655ZM2405.88 99.4872C2406.82 99.4872 2406.82 99.4872 2406.82 99.4872 2406.82 99.9544 2407.05 100.188 2407.28 100.422 2407.52 100.655 2407.75 100.889 2407.98 100.889 2408.45 100.889 2408.68 100.889 2408.92 100.655 2409.15 100.655 2409.38 100.422 2409.38 100.188 2409.62 99.9544 2409.85 99.7208 2409.85 99.2536 2410.08 99.02 2410.08 98.5527 2410.08 98.0855 2410.08 98.0855 2410.08 98.0855 2410.08 97.8519 2409.85 98.3191 2409.62 98.5527 2409.38 98.5527 2408.92 98.7863 2408.68 98.7863 2408.22 98.7863 2407.52 98.7863 2407.05 98.5527 2406.58 97.8519 2406.12 97.3846 2405.88 96.6838 2406.12 95.9829 2406.12 95.0484 2406.35 94.5812 2406.82 94.114 2407.52 93.6467 2407.98 93.4131 2408.68 93.4131 2409.38 93.4131 2409.85 93.6467 2410.08 94.114 2410.55 94.3476 2410.78 94.8148 2411.02 95.2821 2411.25 95.7493 2411.25 96.6838 2411.25 97.6182 2411.02 98.5527 2411.02 99.4872 2410.55 99.9544 2410.32 100.655 2410.08 101.123 2409.62 101.356 2409.15 101.59 2408.45 101.823 2407.98 101.59 2407.28 101.59 2406.82 101.356 2406.35 101.123 2406.12 100.655 2405.88 100.188 2405.88 99.4872ZM2410.32 96.2165C2410.32 95.7493 2410.08 95.2821 2409.85 94.8148 2409.62 94.5812 2409.15 94.3476 2408.92 94.3476 2408.45 94.3476 2407.98 94.3476 2407.75 94.8148 2407.28 95.0484 2407.05 95.5157 2407.05 95.9829 2407.05 96.6838 2407.05 96.9174 2407.28 97.3846 2407.75 97.6182 2407.98 97.8519 2408.45 97.8519 2408.92 98.0855 2409.38 97.8519 2409.62 97.6182 2410.08 97.3846 2410.08 96.9174 2410.32 96.2165ZM2420.35 100.422C2420.35 101.356 2420.35 101.356 2420.35 101.356 2414.98 101.823 2414.98 101.823 2414.98 101.823 2414.98 101.59 2414.98 101.356 2415.22 101.123 2415.22 100.655 2415.45 100.422 2415.68 99.9544 2415.92 99.7208 2416.38 99.2536 2416.85 98.5527 2417.78 97.8519 2418.25 97.151 2418.48 96.9174 2418.72 96.4501 2418.95 95.9829 2418.95 95.5157 2418.72 95.2821 2418.72 94.8148 2418.25 94.5812 2418.02 94.3476 2417.78 94.3476 2417.32 94.3476 2416.85 94.3476 2416.38 94.5812 2416.15 94.8148 2415.92 95.0484 2415.68 95.5157 2415.68 95.9829 2414.75 95.9829 2414.75 95.9829 2414.75 95.9829 2414.75 95.2821 2414.98 94.5812 2415.45 94.3476 2415.92 93.8803 2416.38 93.6467 2417.08 93.4131 2418.02 93.4131 2418.48 93.6467 2419.18 93.8803 2419.65 94.3476 2419.88 94.8148 2419.88 95.5157 2419.88 95.7493 2419.88 96.2165 2419.88 96.4501 2419.65 96.6838 2419.42 97.151 2419.18 97.6182 2418.95 97.8519 2418.48 98.3191 2417.78 99.02 2417.32 99.7208 2416.85 99.9544 2416.85 100.188 2416.62 100.422 2416.38 100.655 2416.38 100.655 2420.35 100.422 2420.35 100.422 2420.35 100.422ZM2424.55 98.5527C2425.48 98.3191 2425.48 98.3191 2425.48 98.3191 2425.71 98.7863 2425.95 99.2536 2426.18 99.4872 2426.65 99.7208 2426.88 99.7208 2427.35 99.7208 2427.81 99.4872 2428.05 99.2536 2428.28 99.02 2428.51 98.5527 2428.75 98.0855 2428.75 97.6182 2428.51 97.151 2428.28 96.9174 2428.05 96.6838 2427.58 96.4501 2427.35 96.4501 2426.88 96.4501 2426.65 96.4501 2426.41 96.4501 2426.18 96.6838 2426.18 95.7493 2426.18 95.7493 2426.18 95.7493 2426.18 95.7493 2426.18 95.7493 2426.18 95.7493 2426.65 95.7493 2427.11 95.5157 2427.35 95.2821 2427.58 95.0484 2427.81 94.5812 2427.58 94.114 2427.58 93.8803 2427.35 93.4131 2427.11 93.4131 2426.88 93.1795 2426.41 92.9459 2426.18 93.1795 2425.71 93.1795 2425.48 93.4131 2425.25 93.6467 2425.01 93.8803 2425.01 94.3476 2425.01 94.8148 2423.85 94.8148 2423.85 94.8148 2423.85 94.8148 2423.85 94.114 2424.08 93.6467 2424.55 93.1795 2424.78 92.7122 2425.25 92.4786 2425.95 92.245 2426.41 92.245 2426.88 92.245 2427.11 92.4786 2427.58 92.4786 2427.81 92.7122 2428.28 92.9459 2428.51 93.1795 2428.51 93.6467 2428.75 93.8803 2428.75 94.3476 2428.75 94.5812 2428.51 95.0484 2428.51 95.2821 2428.28 95.5157 2427.81 95.7493 2428.28 95.7493 2428.75 95.9829 2428.98 96.2165 2429.45 96.4501 2429.68 96.9174 2429.68 97.3846 2429.68 98.0855 2429.68 98.7863 2429.21 99.4872 2428.75 99.9544 2428.28 100.422 2427.35 100.422 2426.65 100.655 2426.18 100.422 2425.48 100.188 2425.01 99.7208 2424.78 99.2536 2424.55 98.5527ZM2445.31 85.2365C2446.24 84.5356 2446.24 84.5356 2446.24 84.5356 2448.34 88.7407 2448.34 88.7407 2448.34 88.7407 2448.81 89.4416 2449.04 90.1424 2449.04 90.6097 2449.28 91.0769 2449.04 91.5442 2448.81 92.0114 2448.58 92.4786 2448.11 92.9459 2447.41 93.4131 2446.71 93.6467 2446.01 93.8803 2445.54 93.8803 2444.84 93.8803 2444.38 93.6467 2444.14 93.4131 2443.68 92.9459 2443.21 92.4786 2442.74 91.7778 2440.64 87.5727 2440.64 87.5727 2440.64 87.5727 2441.58 87.1054 2441.58 87.1054 2441.58 87.1054 2443.68 91.3105 2443.68 91.3105 2443.68 91.3105 2444.14 91.7778 2444.38 92.245 2444.61 92.4786 2444.84 92.7122 2445.31 92.9459 2445.54 92.9459 2446.01 92.9459 2446.48 92.7122 2446.71 92.4786 2447.41 92.245 2447.88 91.7778 2448.11 91.3105 2448.11 90.8433 2447.88 90.1424 2447.41 89.208 2445.31 85.2365 2445.31 85.2365 2445.31 85.2365ZM2455.81 88.0399C2450.91 81.7322 2450.91 81.7322 2450.91 81.7322 2451.61 81.0313 2451.61 81.0313 2451.61 81.0313 2458.84 83.3675 2458.84 83.3675 2458.84 83.3675 2454.87 78.2279 2454.87 78.2279 2454.87 78.2279 2455.81 77.7607 2455.81 77.7607 2455.81 77.7607 2460.94 84.0684 2460.94 84.0684 2460.94 84.0684 2460.01 84.5356 2460.01 84.5356 2460.01 84.5356 2452.78 82.4331 2452.78 82.4331 2452.78 82.4331 2456.74 87.339 2456.74 87.339 2456.74 87.339 2455.81 88.0399 2455.81 88.0399 2455.81 88.0399ZM2466.07 78.9288C2466.77 78.2279 2466.77 78.2279 2466.77 78.2279 2460.94 72.6211 2460.94 72.6211 2460.94 72.6211 2460.24 73.3219 2460.24 73.3219 2460.24 73.3219 2466.07 78.9288 2466.07 78.9288 2466.07 78.9288ZM2472.84 70.9858C2464.44 68.8832 2464.44 68.8832 2464.44 68.8832 2465.14 67.9487 2465.14 67.9487 2465.14 67.9487 2471.2 69.5841 2471.2 69.5841 2471.2 69.5841 2471.67 69.5841 2472.14 69.8177 2472.37 69.8177 2472.14 69.5841 2471.9 69.1168 2471.67 68.8832 2467.94 63.7436 2467.94 63.7436 2467.94 63.7436 2468.64 62.8091 2468.64 62.8091 2468.64 62.8091 2473.54 70.0513 2473.54 70.0513 2473.54 70.0513 2472.84 70.9858 2472.84 70.9858 2472.84 70.9858ZM2478.44 61.8747C2470.97 58.604 2470.97 58.604 2470.97 58.604 2473.3 53.2308 2473.3 53.2308 2473.3 53.2308 2474.24 53.698 2474.24 53.698 2474.24 53.698 2472.37 58.1368 2472.37 58.1368 2472.37 58.1368 2474.7 59.0712 2474.7 59.0712 2474.7 59.0712 2476.34 55.0997 2476.34 55.0997 2476.34 55.0997 2477.27 55.3333 2477.27 55.3333 2477.27 55.3333 2475.4 59.5385 2475.4 59.5385 2475.4 59.5385 2477.97 60.7066 2477.97 60.7066 2477.97 60.7066 2480.07 56.0342 2480.07 56.0342 2480.07 56.0342 2480.77 56.5014 2480.77 56.5014 2480.77 56.5014 2478.44 61.8747 2478.44 61.8747 2478.44 61.8747ZM2483.34 50.1937C2475.4 48.0912 2475.4 48.0912 2475.4 48.0912 2476.34 44.5869 2476.34 44.5869 2476.34 44.5869 2476.57 43.8861 2476.8 43.4188 2477.04 43.1852 2477.27 42.718 2477.5 42.4843 2477.97 42.4843 2478.44 42.2507 2478.9 42.2507 2479.14 42.4843 2479.84 42.4843 2480.3 42.9516 2480.54 43.4188 2480.77 43.8861 2480.77 44.3533 2480.77 45.2878 2481 45.0541 2481.24 44.8205 2481.24 44.5869 2481.7 44.3533 2482.17 44.3533 2482.64 44.1197 2485.2 43.4188 2485.2 43.4188 2485.2 43.4188 2484.74 44.5869 2484.74 44.5869 2484.74 44.5869 2482.87 45.2878 2482.87 45.2878 2482.87 45.2878 2482.4 45.2878 2481.94 45.5214 2481.47 45.755 2481.24 45.755 2481 45.9886 2481 45.9886 2480.77 46.2222 2480.77 46.2222 2480.54 46.4559 2480.54 46.6895 2480.54 46.6895 2480.3 46.9231 2480.07 48.3248 2480.07 48.3248 2480.07 48.3248 2483.57 49.2593 2483.57 49.2593 2483.57 49.2593 2483.34 50.1937 2483.34 50.1937 2483.34 50.1937ZM2479.14 48.0912C2479.84 45.755 2479.84 45.755 2479.84 45.755 2479.84 45.2878 2479.84 44.8205 2479.84 44.5869 2479.84 44.3533 2479.84 44.1197 2479.6 43.8861 2479.37 43.6524 2479.14 43.6524 2478.9 43.4188 2478.67 43.4188 2478.2 43.4188 2477.97 43.6524 2477.74 43.8861 2477.5 44.3533 2477.27 44.8205 2476.57 47.3903 2476.57 47.3903 2476.57 47.3903 2479.14 48.0912 2479.14 48.0912 2479.14 48.0912ZM2483.57 37.3447C2483.57 36.1767 2483.57 36.1767 2483.57 36.1767 2483.8 36.1767 2484.27 36.1767 2484.5 35.943 2484.74 35.943 2484.97 35.4758 2485.2 35.2422 2485.44 34.7749 2485.44 34.5413 2485.44 34.0741 2485.44 33.6069 2485.44 33.1396 2485.44 32.906 2485.2 32.6724 2485.2 32.4388 2484.97 32.2051 2484.74 31.9715 2484.5 31.9715 2484.27 31.9715 2484.04 31.9715 2483.8 31.9715 2483.57 31.9715 2483.34 32.2051 2483.1 32.4388 2483.1 32.6724 2482.87 32.906 2482.87 33.3732 2482.64 34.0741 2482.4 35.0086 2482.17 35.4758 2481.94 35.7094 2481.7 36.1767 2481.47 36.4103 2481.24 36.4103 2480.77 36.6439 2480.54 36.6439 2480.07 36.6439 2479.84 36.6439 2479.37 36.6439 2478.9 36.4103 2478.67 35.943 2478.44 35.7094 2478.2 35.2422 2478.2 34.7749 2477.97 34.3077 2478.2 33.8405 2478.2 33.1396 2478.2 32.6724 2478.44 32.2051 2478.67 31.7379 2479.14 31.5043 2479.37 31.2707 2479.84 31.0371 2480.3 30.8034 2480.77 30.8034 2480.77 31.9715 2480.77 31.9715 2480.77 31.9715 2480.3 31.9715 2479.84 31.9715 2479.6 32.4388 2479.37 32.6724 2479.14 33.1396 2479.14 33.8405 2478.9 34.3077 2479.14 34.7749 2479.37 35.2422 2479.6 35.4758 2479.84 35.7094 2480.07 35.7094 2480.3 35.7094 2480.77 35.7094 2480.77 35.4758 2481 35.2422 2481.24 34.7749 2481.47 33.8405 2481.7 32.906 2481.94 32.4388 2482.17 32.2051 2482.4 31.7379 2482.64 31.2707 2483.1 31.0371 2483.34 31.0371 2483.8 30.8034 2484.27 30.8034 2484.74 30.8034 2484.97 31.0371 2485.44 31.2707 2485.9 31.5043 2486.14 31.9715 2486.14 32.4388 2486.37 32.906 2486.6 33.3732 2486.37 34.0741 2486.37 34.7749 2486.14 35.2422 2485.9 35.943 2485.67 36.4103 2485.44 36.6439 2484.97 36.8775 2484.5 37.1111 2484.04 37.3447 2483.57 37.3447ZM2486.6 24.2621C2478.44 24.963 2478.44 24.963 2478.44 24.963 2478.44 23.7949 2478.44 23.7949 2478.44 23.7949 2486.37 23.094 2486.37 23.094 2486.37 23.094 2486.6 24.2621 2486.6 24.2621 2486.6 24.2621ZM2485.44 13.9829C2478.44 15.3846 2478.44 15.3846 2478.44 15.3846 2478.9 17.9544 2478.9 17.9544 2478.9 17.9544 2477.97 18.1881 2477.97 18.1881 2477.97 18.1881 2476.8 11.8804 2476.8 11.8804 2476.8 11.8804 2477.74 11.6467 2477.74 11.6467 2477.74 11.6467 2478.2 14.2165 2478.2 14.2165 2478.2 14.2165 2485.2 13.0485 2485.2 13.0485 2485.2 13.0485 2485.44 13.9829 2485.44 13.9829 2485.44 13.9829ZM2481.94 2.0684C2478.9 3.47011 2478.9 3.47011 2478.9 3.47011 2475.64 7.90885 2475.64 7.90885 2475.64 7.90885 2475.17 6.74076 2475.17 6.74076 2475.17 6.74076 2476.8 4.40458 2476.8 4.40458 2476.8 4.40458 2477.04 3.93734 2477.5 3.47011 2477.74 3.23649 2477.27 3.00287 2476.8 3.00287 2476.1 2.76925 2473.3 2.30202 2473.3 2.30202 2473.3 2.30202 2472.84 1.13393 2472.84 1.13393 2472.84 1.13393 2478.44 2.30202 2478.44 2.30202 2478.44 2.30202 2481.47 1.13393 2481.47 1.13393 2481.47 1.13393 2481.94 2.0684 2481.94 2.0684 2481.94 2.0684ZM2412.88-29.4701C2381.39-29.4701 2355.73-3.53844 2355.73 28 2355.73 59.5385 2381.39 85.4701 2412.88 85.4701 2444.61 85.4701 2470.27 59.5385 2470.27 28 2470.27-3.53844 2444.61-29.4701 2412.88-29.4701ZM2412.88-28.302C2382.09-28.302 2356.89-3.0712 2356.89 28 2356.89 58.8376 2382.09 84.302 2412.88 84.302 2443.91 84.302 2469.11 58.8376 2469.11 28 2469.11-3.0712 2443.91-28.302 2412.88-28.302ZM2412.88-54C2367.86-54 2331-17.3219 2331 28 2331 73.0883 2367.86 110 2412.88 110 2458.14 110 2495 73.0883 2495 28 2495-17.3219 2458.14-54 2412.88-54ZM2412.88-52.5983C2368.56-52.5983 2332.4-16.3874 2332.4 28 2332.4 72.3875 2368.56 108.598 2412.88 108.598 2457.21 108.598 2493.37 72.3875 2493.37 28 2493.37-16.3874 2457.21-52.5983 2412.88-52.5983ZM2400.75-43.7208C2401.45-43.4871 2402.39-42.7863 2402.15-41.8518 2401.92-41.6182 2401.92-41.3846 2401.92-41.151 2401.92-39.9829 2401.92-38.8148 2402.15-37.6467 2402.15-36.9458 2402.62-36.0114 2402.15-35.5441 2401.69-35.5441 2401.69-35.7777 2401.45-35.7777 2401.45-36.245 2401.22-36.4786 2400.99-36.7122 2401.22-36.9458 2401.22-37.4131 2401.22-37.6467 2400.99-39.0484 2400.75-40.2165 2400.75-41.6182 2400.52-42.3191 2400.05-43.0199 2400.52-43.7208 2400.52-43.7208 2400.52-43.7208 2400.75-43.7208ZM2402.85-41.8518C2404.02-41.8518 2404.95-41.8518 2405.65-41.3846 2405.65-41.151 2405.65-41.151 2405.42-40.9173 2403.79-40.9173 2404.02-39.7493 2402.39-41.151 2402.39-41.6182 2402.62-41.6182 2402.85-41.8518ZM2395.39-40.6837C2396.32-40.6837 2397.02-40.4501 2397.25-39.7493 2397.25-38.8148 2397.49-37.6467 2397.49-36.7122 2397.95-36.7122 2398.19-36.7122 2398.42-36.4786 2398.42-36.245 2398.42-36.245 2398.42-36.245 2397.95-35.3105 2397.25-34.1424 2396.32-33.6752 2395.85-33.6752 2395.39-33.6752 2394.69-33.6752 2394.69-33.9088 2394.69-33.9088 2394.69-34.1424 2394.69-34.1424 2394.69-34.1424 2394.69-34.1424 2395.15-34.8433 2396.32-34.8433 2396.32-36.0114 2396.32-36.0114 2396.32-36.245 2396.09-36.245 2395.62-36.245 2395.39-36.4786 2395.15-36.7122 2395.15-36.9458 2395.15-36.9458 2395.15-36.9458 2395.39-37.4131 2395.85-37.6467 2396.09-37.8803 2396.09-39.7493 2394.92-39.5156 2394.69-40.4501 2394.69-40.4501 2394.92-40.4501 2394.92-40.4501 2395.15-40.6837 2395.15-40.6837 2395.39-40.6837ZM2404.02-37.8803C2404.95-37.8803 2407.28-37.6467 2407.52-37.1795 2407.75-36.7122 2407.98-36.245 2408.22-36.0114 2408.22-35.7777 2407.98-35.3105 2407.52-35.5441 2406.58-35.7777 2406.35-36.7122 2405.18-36.9458 2404.25-37.1795 2404.25-36.245 2403.32-36.4786 2402.85-36.7122 2402.62-37.1795 2402.39-37.6467 2402.62-37.6467 2402.62-37.6467 2402.62-37.8803 2403.09-37.8803 2403.55-37.8803 2404.02-37.8803ZM2432.48-41.8518C2433.18-41.8518 2433.41-41.6182 2433.65-41.151 2433.88-40.4501 2433.41-40.2165 2433.18-39.7493 2433.18-39.282 2433.65-39.282 2433.41-38.8148 2433.41-38.8148 2433.41-38.5812 2433.18-38.5812 2432.25-38.5812 2431.78-37.6467 2431.08-36.9458 2430.15-36.245 2428.51-35.5441 2426.65-35.7777 2426.65-35.7777 2426.65-36.0114 2426.65-36.0114 2427.81-36.7122 2429.68-36.9458 2430.38-37.8803 2430.38-38.1139 2430.38-38.1139 2430.15-38.1139 2429.45-38.1139 2428.98-39.0484 2428.98-39.7493 2428.98-39.9829 2428.98-39.9829 2429.21-40.2165 2429.45-40.2165 2429.68-39.9829 2429.91-39.9829 2430.61-39.7493 2431.78-39.9829 2432.25-40.2165 2432.48-40.9173 2432.01-41.3846 2432.48-41.8518ZM2432.25-37.4131C2433.88-37.4131 2435.98-34.1424 2434.81-32.5071 2434.81-32.5071 2434.58-32.5071 2434.58-32.2735 2434.11-32.9743 2434.35-33.6752 2434.11-34.376 2433.65-35.3105 2432.01-36.4786 2431.78-37.1795 2432.01-37.1795 2432.01-37.4131 2432.25-37.4131ZM2365.29-34.376C2365.29-34.376 2365.06-34.376 2365.06-34.1424 2365.06-33.9088 2365.06-33.9088 2365.06-33.9088 2365.29-33.6752 2365.76-33.4416 2365.99-33.2079 2366.46-32.5071 2367.16-31.5726 2367.63-30.8718 2367.39-29.9373 2366.46-29.0028 2365.99-28.302 2365.99-28.302 2365.99-28.0683 2365.99-28.0683 2366.23-27.8347 2366.46-27.8347 2366.69-27.8347 2366.93-27.8347 2367.16-27.6011 2367.39-27.6011 2368.09-27.3675 2368.33-28.7692 2368.56-29.2364 2368.56-29.2364 2368.56-29.4701 2368.56-29.4701 2369.03-29.0028 2369.49-28.302 2369.49-27.8347 2368.79-26.6666 2367.86-25.7322 2367.86-23.8632 2367.86-23.6296 2367.86-23.6296 2368.09-23.6296 2369.49-23.6296 2368.79-25.0313 2369.03-25.9658 2369.03-26.6666 2369.49-26.9003 2369.73-27.3675 2369.73-27.3675 2369.96-27.3675 2369.96-27.3675 2370.19-27.1339 2370.19-26.9003 2370.43-26.6666 2370.43-26.6666 2370.43-26.6666 2370.43-26.6666 2369.96-26.1994 2369.73-25.9658 2369.49-25.2649 2369.49-25.2649 2369.49-25.2649 2369.49-25.0313 2369.73-24.3305 2370.66-25.2649 2370.89-25.4985 2371.13-25.4985 2371.13-25.4985 2371.13-25.4985 2371.36-24.7977 2370.66-22.2279 2370.19-21.527 2369.73-21.7607 2369.49-22.2279 2369.26-22.4615 2368.56-22.6951 2368.09-23.1624 2367.63-23.396 2367.16-23.6296 2367.16-24.0968 2366.69-24.3305 2365.99-24.5641 2365.53-23.8632 2365.76-23.396 2365.99-23.1624 2366.46-23.396 2366.93-23.1624 2367.63-22.4615 2368.56-21.9943 2369.26-21.527 2369.73-21.2934 2370.43-21.0598 2370.89-20.5926 2371.13-20.5926 2371.13-20.3589 2371.59-20.1253 2371.82-19.4245 2371.13-18.49 2371.36-17.7891 2371.36-17.7891 2371.36-17.5555 2371.36-17.5555 2371.36-17.5555 2371.36-17.5555 2371.59-17.5555 2372.29-18.49 2372.76-22.4615 2373.22-22.9287 2373.92-21.9943 2374.62-21.0598 2375.32-20.1253 2375.32-20.1253 2375.32-20.1253 2375.32-20.1253 2374.86-19.8917 2374.39-19.8917 2373.92-19.8917 2373.92-19.8917 2373.92-19.6581 2373.69-19.6581 2373.69-19.6581 2373.69-19.6581 2373.69-19.4245 2375.09-19.4245 2375.56-18.9572 2376.96-19.1909 2376.96-19.4245 2376.96-19.4245 2376.96-19.4245 2376.02-20.5926 2375.09-21.7607 2374.39-22.9287 2373.92-23.396 2373.22-23.6296 2372.99-24.3305 2373.22-24.5641 2373.22-25.0313 2373.46-25.2649 2374.86-25.2649 2376.02-25.2649 2377.19-25.4985 2377.66-25.4985 2377.89-25.0313 2378.59-25.2649 2379.06-25.4985 2379.29-25.9658 2379.76-26.433 2379.76-26.433 2379.76-26.433 2379.76-26.6666 2379.52-26.6666 2379.52-26.6666 2379.52-26.6666 2378.36-27.1339 2378.12-26.433 2377.19-26.1994 2376.72-26.1994 2376.26-26.1994 2375.79-26.1994 2375.09-25.9658 2374.39-25.7322 2373.46-25.7322 2373.22-26.1994 2373.69-27.1339 2373.46-27.8347 2373.22-28.302 2373.22-28.7692 2372.99-29.2364 2372.99-29.7037 2372.99-30.1709 2372.99-30.4045 2372.76-30.8718 2372.29-31.339 2371.59-31.1054 2371.59-31.1054 2371.36-30.8718 2371.36-30.8718 2371.36-30.8718 2371.36-30.6381 2371.36-30.6381 2371.36-30.6381 2371.82-30.4045 2371.82-30.4045 2372.52-29.7037 2372.76-27.1339 2372.76-25.9658 2372.52-25.9658 2372.29-25.9658 2371.82-25.9658 2371.36-26.6666 2370.66-27.3675 2370.19-28.0683 2370.19-28.302 2370.43-29.0028 2370.66-29.2364 2370.66-29.2364 2370.66-29.4701 2370.66-29.4701 2370.43-29.4701 2370.43-29.4701 2370.43-29.4701 2370.19-29.2364 2369.96-29.0028 2369.96-28.7692 2369.96-28.5356 2369.73-28.5356 2369.73-28.5356 2369.49-29.0028 2368.56-30.6381 2368.79-30.8718 2368.79-31.1054 2369.49-31.339 2369.73-31.5726 2369.73-31.5726 2369.73-31.5726 2369.73-31.5726 2369.49-31.8062 2369.49-31.8062 2369.26-32.0399 2368.79-32.2735 2368.33-31.5726 2368.09-31.5726 2367.16-32.2735 2367.16-34.376 2365.29-34.376ZM2372.76-25.7322C2372.52-25.4985 2372.52-25.2649 2372.29-25.2649 2372.29-25.0313 2372.52-24.7977 2372.52-24.7977 2372.76-24.7977 2372.76-24.7977 2372.76-24.7977 2372.76-25.0313 2372.76-25.4985 2372.76-25.7322 2372.76-25.7322 2372.76-25.7322 2372.76-25.7322ZM2371.82-24.3305C2371.82-23.396 2371.59-22.6951 2371.36-21.7607 2371.36-21.527 2370.89-21.527 2370.89-21.0598 2371.13-21.0598 2371.36-20.8262 2371.82-20.8262 2371.82-21.0598 2372.52-23.6296 2372.52-23.8632 2372.29-23.8632 2372.29-24.0968 2372.06-24.3305 2372.06-24.3305 2372.06-24.3305 2371.82-24.3305ZM2459.07-31.5726C2458.14-30.6381 2458.14-28.5356 2457.21-27.6011 2456.74-27.6011 2456.74-27.8347 2456.51-27.8347 2456.51-29.0028 2456.97-29.2364 2457.44-30.1709 2457.21-30.4045 2457.21-30.6381 2457.21-30.8718 2456.97-30.8718 2456.97-30.8718 2456.74-30.8718 2456.27-30.1709 2456.27-29.0028 2455.81-28.0683 2455.57-28.302 2455.11-28.5356 2454.87-28.5356 2454.87-28.5356 2454.64-28.5356 2454.64-28.302 2454.64-28.302 2454.64-28.0683 2454.64-28.0683 2455.11-27.1339 2455.34-27.6011 2455.34-26.433 2455.34-26.1994 2455.57-26.1994 2455.57-26.1994 2455.57-26.1994 2455.57-26.1994 2455.81-26.1994 2456.04-26.433 2456.04-26.6666 2456.51-26.9003 2456.74-26.6666 2456.97-26.433 2457.21-26.433 2458.84-25.9658 2459.07-26.433 2459.77-25.2649 2460.24-25.2649 2460.71-25.2649 2461.17-25.2649 2462.11-25.0313 2461.87-24.7977 2463.27-25.0313 2463.27-24.7977 2463.27-24.7977 2463.27-24.7977 2463.27-24.5641 2463.27-24.3305 2463.04-24.3305 2463.04-24.0968 2463.04-24.0968 2463.04-24.0968 2461.87-24.3305 2460.94-24.5641 2459.54-24.3305 2459.54-24.3305 2459.54-24.0968 2459.54-24.0968 2459.54-24.0968 2459.54-24.0968 2459.54-24.0968 2460.94-23.8632 2460.71-23.396 2461.41-22.9287 2461.87-22.4615 2462.34-22.6951 2462.57-22.2279 2462.81-21.9943 2462.81-21.9943 2463.04-21.9943 2463.51-22.6951 2464.91-23.8632 2463.74-25.0313 2463.51-25.4985 2462.57-25.2649 2462.34-25.7322 2462.81-26.1994 2466.77-27.3675 2466.31-28.0683 2466.07-29.0028 2464.91-29.0028 2464.44-29.7037 2464.44-29.7037 2464.21-29.7037 2464.21-29.7037 2463.97-29.4701 2463.97-29.4701 2463.74-29.2364 2463.97-28.7692 2464.44-28.302 2464.91-28.302 2464.91-28.0683 2464.91-28.0683 2465.14-28.0683 2464.67-27.8347 2464.44-27.3675 2463.97-27.1339 2463.74-27.3675 2463.04-27.6011 2462.57-27.3675 2462.34-27.3675 2462.34-27.3675 2462.34-27.1339 2462.57-27.1339 2462.57-26.9003 2462.81-26.6666 2462.57-26.433 2460.94-25.9658 2460.47-26.433 2460.47-26.433 2460.47-26.433 2460.47-26.433 2460.47-26.433 2460.24-26.433 2460.24-26.6666 2461.17-26.9003 2461.87-28.0683 2461.87-29.2364 2462.34-29.9373 2463.04-30.4045 2462.11-31.5726 2462.11-31.5726 2462.11-31.339 2461.87-31.339 2461.87-31.339 2461.64-31.1054 2461.64-30.8718 2461.64-30.6381 2461.64-30.6381 2461.64-30.6381 2461.17-30.8718 2461.17-31.1054 2460.94-31.1054 2460.71-31.1054 2460.71-30.8718 2460.47-30.6381 2460.47-30.4045 2460.47-30.4045 2460.71-30.1709 2460.71-30.1709 2460.71-29.9373 2460.71-29.9373 2460.01-29.7037 2459.54-29.4701 2459.07-29.2364 2459.07-29.4701 2458.84-29.4701 2458.84-29.4701 2459.31-29.9373 2459.54-29.9373 2459.77-30.6381 2459.54-30.8718 2459.31-31.339 2459.31-31.5726 2459.07-31.5726 2459.07-31.5726 2459.07-31.5726ZM2453.48-29.4701C2453.48-29.4701 2453.48-29.4701 2453.71-29.4701 2453.71-29.4701 2453.71-29.4701 2453.71-29.2364 2453.94-28.302 2452.54-27.1339 2451.61-27.1339 2451.61-27.1339 2451.38-27.1339 2451.38-27.3675 2451.61-28.302 2452.78-28.7692 2453.48-29.4701ZM2460.71-29.2364C2461.87-29.0028 2460.94-27.8347 2460.47-27.6011 2460.47-27.6011 2460.24-27.6011 2460.24-27.6011 2460.01-28.0683 2460.01-28.302 2459.77-28.5356 2459.54-28.5356 2459.31-28.5356 2459.31-28.5356 2458.84-28.0683 2459.07-27.6011 2459.31-27.1339 2458.84-26.9003 2458.37-27.1339 2457.91-27.3675 2458.14-27.8347 2458.37-28.302 2458.61-28.7692 2459.07-29.0028 2460.01-28.7692 2460.71-29.2364ZM2455.11-25.7322C2455.11-25.7322 2454.87-25.4985 2454.87-25.2649 2455.11-24.7977 2455.34-24.5641 2455.57-24.3305 2455.34-24.0968 2454.87-23.8632 2454.64-23.6296 2454.64-23.6296 2454.64-23.6296 2454.64-23.6296 2455.11-23.396 2455.57-23.396 2456.04-23.396 2456.04-23.396 2456.27-23.1624 2456.27-23.1624 2456.04-22.6951 2455.81-22.4615 2455.57-21.9943 2454.87-21.9943 2454.18-22.2279 2453.48-22.4615 2453.24-22.6951 2453.01-22.9287 2452.54-23.1624 2452.31-22.9287 2452.31-22.9287 2452.31-22.4615 2452.78-21.9943 2453.01-21.2934 2453.71-21.2934 2454.18-21.527 2454.41-21.527 2454.87-21.2934 2455.34-20.8262 2453.01-19.4245 2452.78-18.9572 2452.31-19.1909 2451.84-19.6581 2451.61-20.1253 2451.38-20.1253 2451.38-20.1253 2451.38-20.1253 2451.38-20.1253 2451.38-20.1253 2451.38-20.1253 2451.38-19.4245 2451.61-19.4245 2451.61-18.9572 2451.38-18.2564 2452.08-17.5555 2452.78-17.7891 2453.94-18.49 2454.87-20.3589 2456.04-20.8262 2456.51-21.0598 2456.97-20.5926 2457.44-20.3589 2457.91-19.8917 2457.91-18.9572 2458.14-18.2564 2458.37-18.2564 2458.37-18.0228 2458.84-18.0228 2458.84-18.2564 2459.07-18.49 2459.07-18.7236 2459.07-20.5926 2458.14-20.8262 2456.51-21.527 2456.51-21.527 2456.51-21.527 2456.51-21.7607 2456.74-21.9943 2457.21-21.9943 2457.44-22.4615 2457.44-23.1624 2457.21-23.1624 2456.97-23.396 2456.97-23.396 2456.97-23.6296 2456.97-23.6296 2457.91-23.396 2457.91-22.9287 2458.37-23.6296 2458.37-24.7977 2456.97-24.5641 2456.27-25.2649 2455.81-25.4985 2455.81-25.7322 2455.11-25.7322ZM2438.78 75.8917C2431.08 80.0969 2422.21 82.4331 2412.88 82.4331 2400.29 82.4331 2388.39 77.9943 2379.06 70.5185 2381.39 69.1168 2391.42 63.7436 2402.62 65.8462 2402.62 65.8462 2411.48 67.9487 2414.05 70.0513 2414.75 70.5185 2416.62 71.453 2419.18 72.3875 2417.55 67.0143 2417.55 67.0143 2417.55 67.0143 2412.65 64.6781 2405.18 61.8747 2401.45 61.8747 2395.15 61.8747 2391.19 59.7721 2376.02 67.9487 2374.62 66.547 2373.22 65.1453 2372.06 63.7436 2373.92 62.1083 2382.56 55.3333 2396.09 56.0342 2396.09 56.0342 2405.42 56.0342 2415.92 61.4074 2414.52 56.2678 2414.52 56.2678 2414.52 56.2678 2414.28 56.2678 2414.05 56.0342 2413.58 56.0342 2413.58 56.0342 2399.82 49.9601 2386.76 52.7635 2386.76 52.7635 2380.22 53.2308 2369.26 60.2393 2368.09 58.8376 2367.16 57.2023 2366.23 55.567 2369.26 53.2308 2380.69 45.2878 2396.32 46.2222 2396.32 46.2222 2404.72 45.755 2415.22 51.8291 2415.22 51.8291 2436.68 62.5755 2460.24 54.8661 2459.07 56.9687 2457.67 59.0712 2456.04 60.9402 2451.61 62.1083 2441.58 63.9772 2433.41 62.3419 2433.41 62.3419 2428.28 61.8747 2419.18 58.3704 2420.58 63.2764 2420.58 63.2764 2420.58 63.2764 2426.65 65.3789 2438.54 68.416 2451.61 66.3134 2449.51 68.1824 2447.41 70.2849 2445.08 71.9202 2440.88 72.1539 2432.71 71.9202 2423.15 69.5841 2423.15 69.5841 2422.68 69.3504 2421.98 69.1168 2423.15 73.5556 2423.15 73.5556 2423.15 73.5556 2427.81 74.7236 2433.41 75.6581 2438.78 75.8917ZM2465.14 42.9516C2452.54 48.0912 2440.88 50.1937 2426.88 46.6895 2411.02 42.718 2409.38 36.6439 2391.19 37.1111 2375.79 37.5784 2365.06 45.2878 2362.26 47.6239 2362.96 49.2593 2363.66 50.661 2364.36 52.2963 2373.46 45.2878 2384.42 42.4843 2394.22 42.4843 2405.18 42.4843 2413.82 46.9231 2413.82 46.9231 2413.82 46.9231 2424.31 52.7635 2437.61 53.698 2450.21 54.6325 2461.64 49.7265 2463.04 49.2593 2463.97 47.1567 2464.67 45.0541 2465.14 42.9516Z" fill="#2A458C" fill-rule="evenodd" fill-opacity="0.839216"/></g></g></svg>