<?xml version="1.0" encoding="UTF-8" standalone="no"?>
<svg
   xmlns:dc="http://purl.org/dc/elements/1.1/"
   xmlns:cc="http://creativecommons.org/ns#"
   xmlns:rdf="http://www.w3.org/1999/02/22-rdf-syntax-ns#"
   xmlns:svg="http://www.w3.org/2000/svg"
   xmlns="http://www.w3.org/2000/svg"
   viewBox="0 0 677.70667 676.05334"
   height="676.05334"
   width="677.70667"
   xml:space="preserve"
   id="svg2"
   version="1.1"><metadata
     id="metadata8"><rdf:RDF><cc:Work
         rdf:about=""><dc:format>image/svg+xml</dc:format><dc:type
           rdf:resource="http://purl.org/dc/dcmitype/StillImage" /></cc:Work></rdf:RDF></metadata><defs
     id="defs6" /><g
     transform="matrix(1.3333333,0,0,-1.3333333,0,676.05333)"
     id="g10"><g
       transform="scale(0.1)"
       id="g12"><path
         id="path14"
         style="fill:#f68c15;fill-opacity:1;fill-rule:nonzero;stroke:none"
         d="m 2545.39,5064.77 v -7.88 l -50.35,-5.57 c 3.34,-104.05 -6.7,-209.23 -3.34,-306.57 4.49,-21.21 19.03,-40.26 38.04,-53.66 35.8,-16.79 90.63,-14.55 123.06,7.83 25.76,19.04 35.83,42.51 38.05,70.47 l 5.61,278.59 c -19.04,6.71 -43.66,3.34 -61.56,8.91 v 7.88 c 35.83,2.23 80.59,0 123.08,-3.38 v -7.82 l -40.28,-2.25 c -7.83,-97.34 -7.83,-204.73 -11.19,-306.57 -7.82,-48.05 -60.42,-69.36 -101.8,-77.15 -67.13,0 -139.85,0 -176.77,61.53 l -11.18,34.66 c 6.7,93.99 0,193.54 5.58,287.53 -10.07,10.07 -26.85,3.37 -40.28,5.6 v 13.44 c 54.8,-2.27 111.87,-2.27 163.33,-5.59" /><path
         id="path16"
         style="fill:#f68c15;fill-opacity:1;fill-rule:nonzero;stroke:none"
         d="m 3015.28,5030.05 c 49.23,-121.92 95.09,-244.99 147.7,-365.84 36.9,95.11 55.93,196.9 89.49,293.12 -19.05,11.19 -43.64,10.08 -62.65,21.27 1.11,12.3 8.93,14.53 19.01,11.19 l 110.76,-32.46 v -16.79 l -43.63,13.47 c -44.73,-120.83 -70.47,-249.49 -109.64,-372.56 -14.51,-1.13 -33.55,1.12 -48.08,7.85 -69.39,143.17 -129.8,290.87 -199.13,435.18 l -5.6,-5.6 c -13.42,-120.81 -35.8,-238.27 -53.71,-356.85 19.04,-10.08 40.31,-14.57 61.54,-16.8 v -13.44 c -43.61,2.25 -86.14,20.13 -130.89,24.64 v 11.19 c 15.65,4.43 41.4,-10.08 50.34,2.23 16.77,121.95 35.81,242.79 57.05,362.47 -12.32,16.8 -53.68,-2.24 -45.86,26.88 54.77,-9 109.59,-17.96 163.3,-29.15 v 0" /><path
         id="path18"
         style="fill:#f68c15;fill-opacity:1;fill-rule:nonzero;stroke:none"
         d="m 2040.83,5016.66 c 8.95,-40.29 24.61,-79.44 30.19,-120.84 l -13.43,-3.35 c -30.2,32.47 -53.7,100.71 -107.38,88.41 l -132.03,-36.93 c 5.59,-55.93 31.33,-104.04 40.28,-158.86 25.73,0 53.69,10.05 78.33,21.22 17.87,22.38 20.13,53.7 17.87,80.57 4.49,2.25 8.94,3.35 13.45,3.35 16.77,-52.57 27.95,-107.39 45.85,-158.87 -3.34,-8.94 -12.3,-3.35 -19.01,-5.59 -10.07,21.26 -20.13,43.62 -42.52,57.07 -31.3,10.04 -58.17,-7.86 -86.14,-13.45 7.83,-57.05 27.97,-115.21 43.63,-172.29 47,3.37 95.11,20.16 142.08,34.69 45.88,33.55 32.46,96.22 42.52,145.45 4.47,3.35 10.07,1.12 13.41,5.6 7.86,-12.31 7.86,-26.87 11.19,-40.29 13.42,-31.32 15.68,-68.25 29.1,-99.56 -112.99,-35.81 -230.47,-58.2 -343.46,-94 -4.48,3.37 -5.59,7.87 -5.59,13.45 11.18,10.07 54.8,-1.12 34.68,29.09 -31.32,110.76 -59.3,223.77 -93.99,333.41 -11.2,-4.49 -33.55,-14.56 -40.27,-2.28 22.36,12.31 51.46,17.9 78.33,23.5 86.14,26.84 174.51,49.2 262.91,70.5 v 0" /><path
         id="path20"
         style="fill:#f68c15;fill-opacity:1;fill-rule:nonzero;stroke:none"
         d="m 3542.22,4876.8 -3.37,-13.42 c -14.53,0 -33.54,22.36 -44.74,2.23 -39.14,-116.35 -93.98,-226 -137.6,-341.23 11.17,-11.17 35.81,-7.83 38.04,-23.47 l -5.6,-5.61 -142.09,55.95 c -1.12,5.59 0,10.04 5.61,13.42 11.17,-4.49 21.24,-12.31 34.66,-13.42 50.34,116.35 97.34,233.81 142.07,352.39 -8.91,12.31 -41.36,5.6 -32.41,26.87 48.09,-17.93 95.09,-39.17 145.43,-53.71 v 0" /><path
         id="path22"
         style="fill:#f68c15;fill-opacity:1;fill-rule:nonzero;stroke:none"
         d="m 1614.57,4758.22 -11.19,-5.59 c -41.4,30.21 -72.73,93.96 -132.03,72.72 -34.67,-13.47 -76.04,-33.58 -90.6,-72.72 -4.49,-21.27 -6.71,-48.11 10.05,-63.82 81.69,-36.89 172.3,13.46 258.46,-3.31 25.72,-5.6 44.75,-27.98 55.93,-50.36 17.9,-38.04 2.23,-80.57 -15.67,-112.99 -54.83,-71.61 -135.37,-92.85 -220.4,-96.25 -14.54,38.06 -38.03,73.87 -51.45,111.9 5.6,1.13 11.19,10.05 16.76,3.35 30.21,-31.33 54.82,-68.24 93.99,-83.92 49.23,-11.17 92.86,12.3 123.07,49.24 10.07,21.25 26.83,43.64 16.79,69.36 -6.72,29.1 -39.17,43.63 -64.9,48.12 -91.74,7.82 -223.77,-60.43 -260.69,59.27 -10.05,52.6 23.5,97.33 64.9,126.41 46.99,30.2 100.68,45.88 157.75,53.71 22.37,-33.54 33.55,-69.34 49.23,-105.12" /><path
         id="path24"
         style="fill:#f68c15;fill-opacity:1;fill-rule:nonzero;stroke:none"
         d="m 3759.24,4761.54 c 0,-6.71 -2.22,-12.3 -7.81,-16.79 -15.68,3.37 -25.72,21.27 -42.51,21.27 -20.12,-104.02 -26.84,-212.57 -45.87,-316.6 h 7.85 c 83.92,65.99 171.15,121.93 255.07,187.95 -4.48,17.89 -47,20.13 -26.86,40.28 33.56,-13.44 62.66,-36.92 93.98,-55.96 2.26,-6.71 -5.59,-12.3 -11.19,-13.42 -11.18,2.25 -17.9,16.79 -31.3,13.42 -107.44,-86.14 -221.54,-158.87 -331.18,-241.64 -72.72,3.34 -21.24,73.83 -29.08,112.98 l 45.85,316.62 c -7.83,8.96 -33.56,12.31 -24.61,26.84 7.84,6.74 14.56,-2.25 21.27,-3.34 l 126.39,-71.61 v 0" /><path
         id="path26"
         style="fill:#f68c15;fill-opacity:1;fill-rule:nonzero;stroke:none"
         d="m 1227.48,4698.89 -32.46,-23.5 168.94,-245 c 15.65,-35.81 8.94,-82.78 -15.67,-111.87 -49.23,-50.35 -107.4,-87.27 -176.75,-78.32 -23.47,8.93 -46.99,22.38 -62.64,45.87 -51.46,72.7 -98.45,147.71 -155.502,220.4 -12.308,-4.45 -21.269,-14.53 -32.464,-22.35 l -7.825,8.91 c 41.403,31.32 88.391,64.9 134.251,93.99 l 5.6,-8.93 -38.03,-29.13 177.88,-247.24 c 15.65,-14.51 32.43,-25.7 53.71,-26.84 42.51,2.26 80.55,32.44 101.79,70.48 17.91,34.69 3.37,76.09 -19.01,104.04 l -149.91,212.58 c -17.9,-7.85 -34.69,-21.27 -51.48,-32.44 l -7.82,7.83 c 29.09,22.38 62.64,44.74 93.96,70.47 6.72,1.16 12.29,-3.35 13.43,-8.95" /><path
         id="path28"
         style="fill:#f68c15;fill-opacity:1;fill-rule:nonzero;stroke:none"
         d="m 4320.88,4347.61 c -26.84,-32.43 -53.71,-69.38 -86.17,-93.97 l -7.82,7.83 c 11.19,42.51 45.85,88.39 21.24,132.02 l -109.64,90.63 c -36.89,-38.04 -79.43,-79.44 -110.76,-123.07 25.76,-22.38 50.37,-64.9 91.77,-45.87 21.28,-1.15 44.77,48.08 55.92,13.42 -41.39,-39.15 -72.7,-89.49 -115.2,-120.82 -7.85,20.13 11.16,43.63 15.65,64.88 5.6,36.91 -36.91,52.59 -58.17,74.95 -40.3,-40.26 -80.57,-89.48 -120.83,-134.23 51.46,-32.44 91.75,-118.61 163.35,-93.97 30.2,11.2 57.05,30.21 86.16,45.88 6.72,2.23 10.03,-3.36 15.64,-5.59 v -5.59 l -93.95,-104.06 c -90.65,72.73 -180.16,148.8 -268.51,228.23 l 7.83,7.82 30.2,-24.61 c 81.67,88.4 163.38,181.25 241.66,274.1 l -30.19,26.85 5.58,7.85 c 88.36,-69.38 177.87,-143.24 266.24,-222.68 v 0" /><path
         id="path30"
         style="fill:#f68c15;fill-opacity:1;fill-rule:nonzero;stroke:none"
         d="m 832.535,4393.49 c 30.207,-26.83 47,-54.82 78.32,-78.31 l -11.191,-10.06 c -50.34,11.17 -114.121,71.58 -161.094,10.06 -30.211,-26.84 -43.629,-66.02 -29.097,-104.05 46.996,-87.26 126.433,-185.71 228.226,-201.39 39.172,3.37 74.951,27.99 93.991,63.78 16.77,55.94 -24.63,101.82 -40.284,151.03 3.364,2.27 5.59,6.74 10.074,4.48 l 89.49,-88.38 c -31.3,-72.72 -98.431,-149.89 -180.115,-163.35 -76.089,-14.53 -140.96,16.79 -191.304,72.73 -36.914,48.11 -63.785,104.05 -48.106,171.18 16.758,80.51 89.485,142.05 161.09,172.28" /><path
         id="path32"
         style="fill:#f68c15;fill-opacity:1;fill-rule:nonzero;stroke:none"
         d="m 4481.99,4138.4 -128.67,-101.79 c 29.1,-38.06 65.99,-91.77 120.81,-86.17 32.46,0 57.07,27.96 69.41,55.94 14.53,54.82 -31.36,95.07 -61.55,132.02 z m 115.22,-168.91 c -1.11,-35.83 -23.49,-66.02 -55.93,-78.32 -55.94,-14.54 -101.81,29.09 -143.17,67.12 l -4.48,-5.6 c -10.07,-79.43 -33.58,-154.38 -43.63,-233.82 l 19.01,-23.49 c -3.34,-4.49 -7.81,-6.71 -13.41,-5.6 -129.8,88.37 -2.26,227.08 -15.67,341.23 l -143.18,-113 c 6.72,-14.54 20.11,-26.84 30.21,-40.3 l -7.84,-7.82 c -39.14,39.15 -67.13,87.26 -105.16,128.66 l 7.81,7.83 c 16.8,-3.34 16.8,-42.49 38.07,-23.5 90.6,74.98 184.59,142.1 276.33,217.03 -1.12,14.55 -34.69,27.98 -13.41,40.29 63.7,-88.38 156.55,-164.44 174.45,-270.71 v 0" /><path
         id="path34"
         style="fill:#f68c15;fill-opacity:1;fill-rule:nonzero;stroke:none"
         d="m 4833.3,3617.06 5.58,-26.85 c -34.69,-16.78 -67.13,-39.17 -105.15,-50.36 -1.15,3.37 -3.34,7.85 -2.26,13.45 34.7,39.14 85.03,74.97 64.89,134.25 -15.66,38.03 -45.88,83.89 -91.75,88.37 -22.39,-1.11 -44.74,-6.71 -55.94,-26.83 -15.65,-93.97 41.39,-191.33 2.25,-281.93 -29.1,-30.21 -68.24,-42.53 -109.64,-32.47 -96.23,33.59 -144.31,133.14 -147.68,228.25 34.7,23.47 73.84,39.15 109.63,61.53 1.12,-2.25 11.18,-6.71 7.84,-13.45 -39.14,-44.74 -95.09,-86.16 -80.57,-149.9 16.78,-34.69 43.63,-78.32 83.91,-88.4 21.25,-8.93 40.29,3.37 58.18,10.08 55.95,57.05 10.09,139.85 8.95,206.98 -3.34,36.89 -1.12,79.43 34.7,101.82 29.09,19.01 65.98,21.24 99.56,7.82 70.49,-35.8 100.7,-111.89 117.5,-182.36 v 0" /><path
         id="path36"
         style="fill:#f68c15;fill-opacity:1;fill-rule:nonzero;stroke:none"
         d="m 287.695,3582.37 c -62.644,-7.85 -69.382,-78.29 -93.968,-120.81 l 149.906,-64.9 c 20.129,43.63 42.484,96.24 22.379,145.44 -16.789,31.33 -53.707,40.27 -78.317,40.27 z m 346.825,270.76 -185.731,24.61 101.82,-158.87 z m 219.289,49.23 c 15.648,7.82 13.418,39.14 35.777,26.84 v -8.94 l -91.734,-130.92 c -5.602,-1.13 -10.059,0 -13.422,5.6 4.476,13.42 19.011,22.39 21.269,36.89 -43.633,11.2 -99.59,10.08 -147.676,21.28 -35.804,-50.35 -68.273,-102.94 -93.996,-157.76 24.61,-35.82 51.481,-70.49 72.727,-107.42 19.012,6.74 16.781,54.8 42.508,40.29 v -7.85 c -27.973,-49.19 -52.586,-99.55 -80.567,-147.67 -81.632,-23.5 -162.234,-50.37 -241.668,-80.55 53.703,-26.86 109.637,-48.1 164.461,-72.72 10.078,14.5 10.078,38.01 26.867,45.86 l 5.594,-5.6 -62.672,-147.7 h -10.05 c -1.122,12.33 10.05,25.73 10.05,40.31 -107.386,50.34 -218.14,93.95 -326.672,139.85 l -19.042,-35.83 c -5.59,2.26 -16.786,6.71 -7.825,13.44 58.164,92.84 57.051,224.89 168.922,281.93 24.613,1.12 45.879,3.35 67.129,-13.41 49.223,-38.04 30.203,-111.9 15.676,-161.12 77.176,17.9 155.496,45.89 231.586,72.72 l 10.054,19.02 -228.222,346.83 c 14.535,68.24 91.762,15.67 137.621,23.49 l 313.305,-36.86" /><path
         id="path38"
         style="fill:#f68c15;fill-opacity:1;fill-rule:nonzero;stroke:none"
         d="m 4903.76,3474.94 c 13.45,-49.19 36.92,-95.09 50.37,-145.43 -23.51,-8.92 -11.2,42.51 -36.92,32.45 -110.76,-40.29 -221.51,-78.31 -331.18,-123.08 -1.12,-14.51 19.03,-30.2 5.6,-40.26 h -5.6 c -13.44,49.23 -36.9,95.08 -50.35,144.31 2.26,5.59 6.72,2.24 10.09,3.34 l 13.41,-34.69 c 115.25,41.45 232.7,75 344.58,125.37 -3.35,12.3 -26.84,40.25 0,37.99 v 0" /><path
         id="path40"
         style="fill:#f68c15;fill-opacity:1;fill-rule:nonzero;stroke:none"
         d="m 2326.1,3329.51 v -58.16 c -23.5,7.81 -15.64,41.37 -40.26,55.92 -19.04,4.49 -42.51,4.49 -57.07,-11.18 -7.85,-4.48 -13.45,-15.69 -7.85,-23.5 1.11,-11.2 13.44,-16.79 21.27,-21.24 31.33,-16.8 72.7,-14.57 93.97,-49.23 5.6,-17.9 3.34,-38.06 -7.83,-53.69 -25.76,-27.98 -66.02,-35.82 -101.81,-23.52 -26.85,3.37 -31.31,20.14 -32.45,45.88 4.46,7.86 2.23,19.04 2.23,29.1 21.27,1.11 15.67,-27.96 24.62,-40.26 2.25,-11.2 14.52,-21.27 24.64,-26.87 16.78,-6.71 33.57,1.12 48.08,7.83 15.68,10.07 15.68,29.09 10.08,43.64 -33.57,39.16 -130.92,22.38 -107.42,101.8 22.39,35.83 66.01,39.17 105.16,32.46 7.86,-3.38 15.7,-5.59 24.64,-8.98 v 0" /><path
         id="path42"
         style="fill:#f68c15;fill-opacity:1;fill-rule:nonzero;stroke:none"
         d="m 2905.64,3329.51 -2.26,-55.93 c -21.27,0 -14.53,30.22 -26.87,42.51 -13.41,19.02 -40.26,14.53 -59.27,11.18 -14.54,-7.82 -23.48,-21.27 -21.24,-38.02 36.92,-40.29 142.07,-21.27 117.45,-107.42 -13.41,-23.5 -40.25,-40.28 -69.34,-40.28 -25.73,-3.34 -47.03,5.58 -67.12,13.44 -4.49,23.5 -2.27,47 -3.38,64.87 22.39,1.12 13.42,-30.23 24.62,-42.51 10.07,-24.62 36.91,-29.07 59.29,-22.36 12.31,3.34 17.9,12.3 26.85,22.36 5.6,58.21 -64.87,48.11 -97.34,71.61 -14.53,13.42 -23.5,33.57 -15.65,53.7 8.92,21.23 30.22,33.56 51.46,38.02 29.09,1.15 58.18,1.15 82.8,-11.17 v 0" /><path
         id="path44"
         style="fill:#f68c15;fill-opacity:1;fill-rule:nonzero;stroke:none"
         d="m 2437.97,3335.11 v -7.84 c -4.45,-5.6 -14.53,4.49 -21.24,-2.25 l 3.34,-156.61 c 11.19,-20.13 36.95,-16.79 55.96,-13.45 13.43,2.26 19.01,16.79 24.61,26.85 v 143.21 c -7.84,4.44 -19.01,1.11 -26.87,2.23 v 7.83 c 25.73,5.6 38.05,1.14 61.54,0 v -7.83 c -19.01,6.71 -19.01,-10.07 -21.24,-21.27 -7.85,-51.45 30.2,-144.3 -40.3,-164.43 -33.54,-1.15 -76.06,-2.29 -93.96,32.43 l -3.36,147.68 c -3.35,8.93 -12.32,4.47 -19.02,5.59 1.11,2.23 -1.12,4.48 -2.26,5.6 l 5.6,5.6 c 32.46,-1.09 47.02,1.14 77.2,-3.34 v 0" /><path
         id="path46"
         style="fill:#f68c15;fill-opacity:1;fill-rule:nonzero;stroke:none"
         d="m 2634.9,3327.3 c -49.23,-24.61 -30.22,-98.45 -26.87,-145.44 7.85,-26.84 38.04,-30.21 61.54,-23.5 33.57,36.89 26.86,101.81 15.67,147.67 -6.71,19.02 -29.1,24.62 -50.34,21.27 z m 90.6,-29.1 c 15.64,-25.73 15.64,-59.3 11.17,-89.51 -11.17,-32.43 -41.38,-60.39 -74.96,-67.13 -40.28,-3.34 -76.07,13.46 -93.97,49.23 -17.9,33.58 -15.67,85.03 7.86,115.21 25.7,27.99 60.38,42.52 99.54,32.48 20.15,-5.58 38.06,-23.49 50.36,-40.28" /><path
         id="path48"
         style="fill:#f68c15;fill-opacity:1;fill-rule:nonzero;stroke:none"
         d="m 126.598,3306 c 4.457,-14.5 -8.965,-27.95 -7.848,-43.62 l 153.266,-161.07 c 54.824,-13.45 110.789,-26.87 165.605,-40.32 12.313,15.67 3.348,53.72 26.836,49.23 l -42.484,-177.88 -11.192,3.37 c 0,19.01 15.668,39.14 5.59,55.92 l -153.289,38.05 c -71.613,-26.84 -146.562,-45.86 -219.2851,-67.13 -7.8242,-12.31 3.3672,-45.86 -22.3633,-35.81 l 43.6289,172.3 10.0586,-2.26 -10.0586,-51.46 c 62.6485,8.92 125.2925,34.69 187.9415,51.46 -42.516,47 -90.598,101.81 -139.824,144.33 -11.2,-12.33 2.226,-48.12 -21.2737,-42.52 1.1171,35.81 19.0237,70.47 23.4997,107.39 h 11.192 v 0.02" /><path
         id="path50"
         style="fill:#f68c15;fill-opacity:1;fill-rule:nonzero;stroke:none"
         d="m 4994.38,3200.85 c 20.15,-97.35 41.43,-196.9 59.32,-292.01 l -118.62,-24.62 c -1.14,2.26 -6.73,7.86 -4.46,13.46 32.44,29.06 114.1,34.66 93.97,99.55 -6.74,13.43 -6.74,45.86 -32.44,29.11 -110.76,-23.5 -220.42,-48.09 -330.04,-72.73 -10.07,-17.9 20.11,-45.89 -5.58,-53.69 l -38.05,172.27 c 6.72,1.14 14.54,4.47 16.79,-5.6 l 4.45,-36.9 h 26.88 l 331.15,71.62 c -6.71,23.49 4.46,65.98 -30.23,76.04 -31.29,6.71 -65.98,6.71 -99.54,10.07 -4.49,3.37 -1.17,8.94 -2.28,13.43 40.29,8.95 81.7,14.55 120.84,26.87 l 7.84,-26.87 v 0" /><path
         id="path52"
         style="fill:#f68c15;fill-opacity:1;fill-rule:nonzero;stroke:none"
         d="m 3262.52,2908.84 c 4.46,-19.02 4.46,-41.38 0,-59.25 -23.52,6.7 -15.66,43.6 -40.28,55.93 -17.92,5.6 -39.18,3.32 -53.69,-7.84 -11.2,-7.86 -11.2,-22.39 -10.09,-32.47 36.94,-39.15 142.09,-23.47 115.25,-107.39 -20.13,-33.57 -62.67,-42.48 -99.55,-36.9 -12.32,7.83 -29.11,4.46 -40.3,15.63 1.11,21.27 -2.25,42.52 2.24,61.53 h 8.95 c 7.83,-23.47 12.3,-52.57 36.9,-67.13 20.13,-6.7 41.41,1.14 57.05,13.47 5.59,10.06 11.18,23.47 4.48,34.68 -34.7,39.17 -128.66,27.96 -109.62,102.92 10.05,25.73 38.01,33.56 61.54,36.91 25.72,4.49 44.73,-6.7 67.12,-10.09 v 0" /><path
         id="path54"
         style="fill:#f68c15;fill-opacity:1;fill-rule:nonzero;stroke:none"
         d="m 1984.88,2905.52 2.24,-59.3 c -20.13,6.7 -20.13,35.8 -34.69,51.47 -8.91,14.54 -30.21,7.86 -42.48,5.58 -42.52,-27.96 -32.45,-85 -30.24,-128.66 3.37,-19.02 13.44,-39.14 32.47,-45.86 22.35,-10.07 45.85,2.23 53.66,23.5 7.87,13.44 4.49,42.51 24.62,40.26 -7.81,-25.7 20.16,-86.14 -32.43,-74.94 -33.55,-2.23 -63.77,1.11 -88.37,19.01 -31.35,27.97 -42.51,66.01 -32.47,107.44 5.6,23.49 21.27,44.74 42.5,59.25 31.35,16.77 71.63,13.44 105.19,2.25 v 0" /><path
         id="path56"
         style="fill:#f68c15;fill-opacity:1;fill-rule:nonzero;stroke:none"
         d="m 2097.88,2911.12 c 4.48,-19.04 -17.9,-5.6 -24.62,-13.44 l 2.23,-145.45 c 3.37,-10.08 13.46,-20.14 24.64,-23.51 24.62,-2.23 48.09,0 59.29,23.51 l 2.24,147.69 c -7.84,7.83 -29.09,-4.47 -29.09,11.2 h 61.53 v -7.85 l -19.01,-3.35 c -11.2,-59.3 29.08,-148.78 -34.67,-179 -29.09,-5.58 -62.68,-5.58 -86.15,10.03 -33.57,43.66 -12.3,110.76 -19.04,166.73 -3.34,8.93 -11.17,4.44 -17.87,5.59 v 7.85 c 26.81,0 57.02,0 80.52,0 v 0" /><path
         id="path58"
         style="fill:#f68c15;fill-opacity:1;fill-rule:nonzero;stroke:none"
         d="m 2299.26,2911.12 v -7.85 l -26.86,-3.35 -3.34,-165.57 c 22.36,0 59.3,-15.67 70.47,15.64 6.7,17.9 4.47,42.5 23.49,51.49 4.48,-24.62 2.22,-52.6 3.34,-78.33 -50.33,-4.47 -100.7,-4.47 -153.27,0 v 7.83 c 6.71,1.14 15.66,-3.32 19.01,5.6 l -3.33,163.37 c -4.45,7.83 -22.37,-3.37 -19.04,11.2 30.23,-0.03 62.67,-0.03 89.53,-0.03" /><path
         id="path60"
         style="fill:#f68c15;fill-opacity:1;fill-rule:nonzero;stroke:none"
         d="m 2516.3,2849.59 h -11.2 c -7.83,17.9 -6.72,42.49 -23.47,53.68 -7.86,-2.25 -23.5,5.57 -24.61,-7.85 l 5.57,-164.48 c 7.84,-2.23 20.15,4.47 21.27,-5.58 l -5.6,-4.45 c -27.97,4.45 -53.69,1.12 -80.55,2.23 v 7.81 c 21.25,-6.7 22.36,11.2 24.62,24.64 l -2.26,144.33 c -23.47,13.43 -34.67,-10.07 -40.26,-26.84 -7.85,-6.73 4.48,-31.34 -16.79,-23.49 v 61.53 c 59.28,-4.49 105.17,7.81 153.28,0 v -61.53 0" /><path
         id="path62"
         style="fill:#f68c15;fill-opacity:1;fill-rule:nonzero;stroke:none"
         d="m 2612.51,2903.27 c -19.01,-5.59 -24.61,-26.86 -29.1,-43.66 -4.47,-43.6 -7.81,-96.19 24.62,-125.29 16.8,-5.6 36.93,-3.37 50.34,7.83 23.53,42.52 13.47,86.17 7.88,134.26 -3.39,25.74 -33.61,29.11 -53.74,26.86 z m 91.74,-26.86 c 20.1,-38.02 20.1,-80.56 0,-118.59 -22.38,-30.21 -61.52,-43.63 -99.57,-36.9 -32.45,6.72 -59.29,38.02 -67.12,69.36 -8.96,35.81 2.23,69.36 21.25,96.23 25.71,25.72 60.38,35.8 97.33,26.84 16.78,-8.97 36.91,-17.9 48.11,-36.94" /><path
         id="path64"
         style="fill:#f68c15;fill-opacity:1;fill-rule:nonzero;stroke:none"
         d="m 2806.07,2899.92 -2.28,-71.6 c 16.79,-2.26 30.24,3.34 45.9,4.47 16.78,8.95 22.37,31.31 15.64,49.21 -8.92,25.75 -38.02,16.79 -59.26,17.92 z m 105.16,-21.27 c 6.7,-24.61 -11.19,-43.63 -30.23,-53.67 -10.08,-3.35 -22.39,-3.35 -31.31,-10.08 32.42,-26.82 52.58,-108.53 107.4,-76.06 l -3.34,161.11 c -4.48,7.83 -22.38,-3.37 -19.03,11.2 l 164.45,2.21 v -63.75 c -21.22,0 -14.51,30.21 -26.82,42.5 -17.92,20.12 -50.34,7.84 -74.97,11.16 -5.6,-23.48 -2.26,-50.35 -3.37,-74.95 12.33,-6.71 35.83,-2.26 43.63,13.42 4.48,7.87 0,23.5 13.47,23.5 4.45,-23.5 1.11,-57.06 2.22,-86.14 -23.49,-1.12 -7.82,36.91 -34.68,38.02 h -21.25 l -3.36,-80.57 c 26.85,2.29 73.86,-19.01 83.94,19.04 7.82,13.45 3.31,41.41 23.49,40.29 v -72.73 h -222.65 l -74.98,86.15 v -74.95 l 23.53,-3.37 v -5.6 l -82.8,-2.23 v 7.83 h 15.67 l 3.31,168.97 -19.03,5.57 2.25,7.83 c 57.02,-6.72 133.14,21.27 164.46,-34.7 v 0" /><path
         id="path66"
         style="fill:#f68c15;fill-opacity:1;fill-rule:nonzero;stroke:none"
         d="m 379.434,2798.08 c 39.144,-78.29 31.32,-176.74 -13.422,-249.44 l -118.61,5.57 v 13.44 c 55.965,17.9 139.86,27.96 145.45,104.06 3.375,49.21 -10.047,96.18 -51.45,120.78 -19.019,2.27 -47,8.96 -61.535,-7.82 -77.207,-70.48 -54.816,-264.03 -206.9764,-222.63 -55.9336,25.73 -74.94529,86.17 -72.718725,145.44 -1.113281,48.09 13.441425,89.49 26.835925,130.91 33.5781,2.23 77.2072,-3.37 115.2382,-5.6 v -13.44 c -46.996,-14.53 -107.3866,-23.5 -125.3163,-77.2 -12.31251,-42.5 -4.4766,-88.36 23.5,-120.81 16.7617,-17.9 41.375,-21.24 61.5353,-19.04 67.129,57.09 66.015,152.18 116.348,220.42 21.242,32.46 58.191,35.8 93.968,29.1 28.008,-4.51 51.481,-30.21 67.153,-53.74" /><path
         id="path68"
         style="fill:#f68c15;fill-opacity:1;fill-rule:nonzero;stroke:none"
         d="m 5067.1,2824.95 c 2.26,-55.94 7.85,-123.07 5.61,-176.74 h -7.83 c -6.72,15.61 2.22,39.14 -8.96,53.67 l -161.1,-101.81 c 53.7,-35.8 114.13,-66.02 170.09,-102.93 l 2.22,49.2 h 11.2 l 4.45,-110.71 h -13.45 c 22.39,54.79 -43.62,57.05 -67.12,80.55 l -125.32,72.72 -174.51,-5.59 -3.37,-55.94 -13.43,2.23 -5.56,180.14 h 11.19 l 5.6,-53.72 171.17,7.83 c 62.64,43.66 126.39,78.32 187.91,120.85 3.39,13.38 -7.8,40.25 11.21,40.25 v 0" /><path
         id="path70"
         style="fill:#f68c15;fill-opacity:1;fill-rule:nonzero;stroke:none"
         d="m 2052,2481.51 v -55.96 c -21.25,1.14 -17.91,30.21 -30.21,44.78 -13.45,13.41 -32.44,15.64 -50.34,11.18 -10.06,-3.37 -17.9,-13.47 -26.85,-21.27 -7.81,-20.13 12.32,-31.31 23.51,-38.03 35.78,-15.67 92.85,-14.54 97.33,-63.79 -1.14,-21.24 -10.08,-40.25 -30.21,-51.45 -31.34,-23.53 -83.91,-14.53 -115.24,2.23 v 62.67 c 23.5,10.06 10.06,-17.9 19.03,-24.61 7.81,-15.67 15.64,-35.83 34.69,-42.52 23.47,-5.6 41.36,5.61 57.04,21.24 10.08,72.73 -85.03,41.41 -110.76,94 -4.47,17.88 -3.35,40.26 11.2,53.66 31.31,22.39 86.14,25.77 120.81,7.87 v 0" /><path
         id="path72"
         style="fill:#f68c15;fill-opacity:1;fill-rule:nonzero;stroke:none"
         d="m 2245.56,2481.51 c -1.12,-19.05 1.11,-39.17 -3.37,-55.96 -19.02,3.35 -16.76,31.32 -29.07,44.78 -10.07,15.64 -29.1,15.64 -43.63,11.18 -45.89,-27.97 -34.69,-95.1 -29.1,-142.12 5.6,-12.31 14.54,-25.7 26.84,-32.42 19.02,-6.73 41.4,-1.15 51.49,15.66 12.3,15.64 5.6,46.98 26.84,49.21 -12.31,-23.5 27.97,-79.42 -24.64,-76.06 -35.8,-7.86 -71.62,2.25 -99.57,22.39 -29.09,27.95 -33.58,69.35 -26.86,109.62 10.07,33.53 41.4,54.81 72.73,64.86 27.99,0.03 54.84,0.03 78.34,-11.14" /><path
         id="path74"
         style="fill:#f68c15;fill-opacity:1;fill-rule:nonzero;stroke:none"
         d="m 2916.82,2430.04 c -25.74,-10.09 -12.32,31.28 -26.85,43.6 -7.86,7.87 -19.05,8.96 -30.25,7.87 l -2.22,-168.94 c 6.71,-7.86 25.73,4.46 23.5,-11.2 l -85.03,-2.25 v 10.08 h 17.9 l 3.34,170.04 c -5.57,4.47 -14.53,1.12 -21.24,2.27 -23.5,-12.3 -7.83,-51.47 -35.8,-53.69 v 61.52 c 46.98,-3.34 111.87,6.72 153.27,0 l 3.38,-59.3 v 0" /><path
         id="path76"
         style="fill:#f68c15;fill-opacity:1;fill-rule:nonzero;stroke:none"
         d="m 2352.97,2479.24 h -16.78 l -2.26,-166.67 c 4.48,-4.49 12.3,-2.25 19.04,-3.37 v -10.06 h -76.09 c -4.48,15.66 13.45,6.71 19.03,13.46 v 163.34 c -5.58,6.71 -23.49,-2.27 -19.03,13.43 h 76.09 v -10.13 0" /><path
         id="path78"
         style="fill:#f68c15;fill-opacity:1;fill-rule:nonzero;stroke:none"
         d="m 2537.56,2427.79 c -19.02,-5.61 -16.79,26.83 -26.86,40.25 -20.13,24.64 -50.34,4.48 -74.96,11.2 -12.3,-22.37 2.23,-53.69 -2.25,-72.73 7.85,-4.43 19.04,-2.23 29.1,-3.31 16.75,10.04 10.05,35.8 26.84,38.02 l 2.25,-86.17 c -22.36,-2.22 -10.05,29.1 -29.09,38.03 -11.17,-3.33 -29.07,6.72 -32.45,-7.81 l 3.35,-72.73 c 24.64,1.12 67.13,-17.93 80.58,15.66 4.47,14.53 12.3,26.82 13.42,43.63 h 13.41 v -72.73 c -55.93,0 -112.98,-2.23 -166.69,2.25 -3.37,14.53 13.42,3.35 19.02,11.19 v 166.67 c -7.83,0 -20.13,-2.22 -19.02,10.07 h 163.35 v -61.49" /><path
         id="path80"
         style="fill:#f68c15;fill-opacity:1;fill-rule:nonzero;stroke:none"
         d="m 2712.08,2368.5 5.59,5.6 c -2.23,35.8 4.48,74.96 -5.59,107.41 h -21.25 v 5.57 l 59.28,2.26 c -1.11,-2.26 1.14,-3.34 2.26,-5.6 l -21.27,-4.49 v -177.88 c -2.23,-4.47 -8.92,-2.25 -13.43,-2.25 l -115.22,166.69 -3.35,-153.24 c 7.81,-4.49 19.01,-2.25 26.82,-3.37 v -7.83 l -61.52,-2.25 v 10.08 h 19.01 l 2.26,166.69 c -3.34,10.05 -13.44,3.32 -21.24,5.59 v 7.83 c 95.09,35.83 100.68,-79.41 147.65,-120.81 v 0" /><path
         id="path82"
         style="fill:#f68c15;fill-opacity:1;fill-rule:nonzero;stroke:none"
         d="m 3122.67,2389.75 -23.5,59.28 -21.25,-61.54 44.75,2.26 z m -115.24,99.56 c 3.37,-14.53 -13.45,-3.34 -19.05,-10.07 v -164.47 c 10.09,-8.95 29.13,-5.6 40.32,-2.23 l 72.72,180.11 h 24.62 l 67.13,-177.88 c 3.34,-5.6 13.44,0 15.63,-7.83 l -7.82,-7.84 -67.12,2.25 v 7.82 h 15.65 c 2.25,22.39 -12.32,43.66 -17.9,64.9 -19.02,-2.24 -58.19,15.66 -70.47,-13.44 0,-17.9 -22.36,-34.69 -10.06,-51.46 h 21.24 v -7.8 c -50.34,1.11 -101.81,-1.13 -142.09,0 v 7.83 h 15.66 l 2.23,170.05 c -4.48,4.49 -12.29,1.14 -17.89,2.26 l 2.23,11.2 c 23.52,-5.63 53.73,-2.29 74.97,-3.4 v 0" /><path
         id="path84"
         style="fill:#f68c15;fill-opacity:1;fill-rule:nonzero;stroke:none"
         d="m 4763.94,2261.09 c 8.93,-21.25 6.7,-51.48 -7.86,-69.38 -16.79,-21.26 -45.88,-21.26 -70.47,-16.77 -15.67,6.71 -23.5,19.02 -34.69,32.45 -4.48,21.24 -4.48,48.08 11.19,64.87 11.2,13.44 26.84,16.76 42.5,21.24 23.51,-2.2 46.99,-8.92 59.33,-32.41" /><path
         id="path86"
         style="fill:#f68c15;fill-opacity:1;fill-rule:nonzero;stroke:none"
         d="m 427.543,2242.07 c 5.598,-19.01 2.23,-42.52 -7.848,-58.16 -16.789,-22.38 -43.625,-29.12 -70.472,-22.38 -22.383,6.72 -38.032,31.3 -40.262,53.68 0,23.48 11.172,43.63 30.184,57.05 30.21,16.78 73.863,6.74 88.398,-30.19" /><path
         id="path88"
         style="fill:#f68c15;fill-opacity:1;fill-rule:nonzero;stroke:none"
         d="m 5055.92,2237.58 c 19.03,-19.01 26.86,-44.75 19.03,-70.47 -5.59,-13.43 -20.13,-29.08 -34.68,-34.68 -23.51,-5.6 -49.2,-2.26 -67.13,13.44 -15.64,17.91 -19.01,43.63 -13.42,67.13 7.83,17.9 27.96,32.44 45.86,38.04 20.13,3.35 35.8,-5.6 50.34,-13.46" /><path
         id="path90"
         style="fill:#f68c15;fill-opacity:1;fill-rule:nonzero;stroke:none"
         d="m 110.93,2224.17 c 15.668,-17.87 19.011,-43.63 13.422,-67.1 -10.059,-22.39 -33.5629,-36.94 -57.0629,-38.05 -23.4922,1.11 -48.086,14.55 -59.26566,38.05 -4.48828,20.1 -4.48828,45.85 11.17966,61.53 22.3711,29.07 65.9961,24.59 91.7269,5.57" /><path
         id="path92"
         style="fill:#f68c15;fill-opacity:1;fill-rule:nonzero;stroke:none"
         d="m 2048.66,2059.7 v -55.93 c -19.03,1.15 -17.91,29.1 -29.1,42.51 -11.2,20.13 -24.61,13.42 -42.48,13.42 -43.63,-24.6 -40.29,-86.14 -35.83,-128.65 4.47,-17.9 12.3,-35.8 30.22,-45.89 22.39,-8.91 48.09,1.11 55.93,24.64 7.86,12.31 6.72,31.3 19.03,40.28 8.96,-16.78 5.59,-47.01 2.25,-67.12 -35.8,-10.08 -79.43,-16.78 -111.89,5.6 -39.16,27.96 -49.23,77.19 -35.78,120.78 14.52,31.35 43.62,57.1 78.29,61.56 24.59,0 49.21,0 69.36,-11.2 v 0" /><path
         id="path94"
         style="fill:#f68c15;fill-opacity:1;fill-rule:nonzero;stroke:none"
         d="m 2886.63,2067.55 v -7.85 l -19.04,-2.25 -2.26,-177.88 h -15.64 c -39.17,54.82 -73.85,110.76 -113.02,164.49 l -5.6,-5.6 2.28,-147.7 c 7.82,-4.49 19.02,-2.23 26.83,-2.23 v -8.96 c -17.91,-3.32 -45.87,-3.32 -61.52,0 -2.26,15.68 16.78,3.37 21.24,11.19 v 163.35 c -3.34,10.04 -13.44,3.34 -21.24,5.59 v 7.85 h 64.87 c 27.95,-41.42 55.94,-82.79 86.16,-123.06 l 2.24,109.62 c -5.59,10.04 -17.9,3.34 -26.85,5.59 v 5.6 c 22.38,4.46 38.05,2.25 61.55,2.25 v 0" /><path
         id="path96"
         style="fill:#f68c15;fill-opacity:1;fill-rule:nonzero;stroke:none"
         d="m 3222.25,2070.9 c 4.45,-20.12 4.45,-44.77 0,-64.87 -22.37,6.7 -10.04,40.25 -32.43,53.67 h -21.24 v -168.94 l 21.24,-2.23 v -8.96 h -85.05 c -2.24,15.68 16.78,3.37 23.53,11.19 v 166.69 c -14.55,7.85 -36.94,-1.11 -36.94,-19.01 -5.59,-11.2 0,-35.84 -19.01,-32.44 v 61.53 c 50.32,1.15 95.09,-1.09 149.9,3.34 v 0.03" /><path
         id="path98"
         style="fill:#f68c15;fill-opacity:1;fill-rule:nonzero;stroke:none"
         d="m 2161.65,2057.47 c -42.53,-33.54 -32.45,-107.39 -19.05,-153.27 10.08,-21.24 36.92,-21.24 57.07,-15.64 38.03,35.78 29.08,96.2 19.02,144.31 -6.72,27.97 -38.03,24.6 -57.04,24.6 z m 101.81,-40.26 c 15.64,-33.56 8.94,-78.31 -10.09,-107.41 -23.5,-31.31 -59.27,-40.28 -93.95,-34.68 -33.59,5.57 -63.79,35.79 -70.47,69.37 -7.86,35.81 2.24,69.35 22.38,96.23 24.6,25.72 60.41,35.78 96.21,26.83 25.71,-6.71 41.38,-30.22 55.92,-50.34 v 0" /><path
         id="path100"
         style="fill:#f68c15;fill-opacity:1;fill-rule:nonzero;stroke:none"
         d="m 2572.23,2059.7 c -11.18,-5.59 -17.9,-6.7 -26.84,-19.01 -16.79,-43.66 -14.54,-106.3 8.94,-147.7 14.56,-4.46 34.68,-13.45 50.35,-2.26 36.91,39.19 21.24,99.6 13.43,147.71 -8.96,16.82 -25.72,25.71 -45.88,21.26 z m 89.51,-34.69 c 14.53,-33.54 17.9,-78.31 -3.37,-109.61 -23.47,-33.56 -62.64,-49.22 -104.01,-38.02 -32.45,8.89 -55.95,41.39 -62.66,72.7 -5.59,41.39 5.6,86.14 43.63,109.62 25.72,17.93 57.09,11.2 86.15,5.6 15.64,-7.83 31.29,-24.58 40.26,-40.29 v 0" /><path
         id="path102"
         style="fill:#f68c15;fill-opacity:1;fill-rule:nonzero;stroke:none"
         d="m 2355.2,2054.11 2.25,-71.58 c 15.68,-2.25 26.87,3.34 40.29,4.46 19.02,8.94 26.83,30.22 19.02,49.22 -10.11,24.63 -39.17,16.79 -61.56,17.9 z m 107.39,-26.84 c 0,-17.93 -7.83,-39.14 -26.85,-44.74 -11.18,-8.94 -31.33,-3.38 -34.68,-16.78 l 67.13,-77.19 c 5.58,-1.14 12.29,1.11 15.67,-3.37 v -5.61 c -70.48,-36.88 -87.23,57.06 -128.66,83.94 -4.48,-23.51 -2.26,-48.09 -2.26,-72.74 6.73,-7.82 29.11,5.61 23.51,-13.4 h -80.56 v 7.81 l 16.8,3.37 2.23,165.55 c -5.6,6.73 -24.62,-2.25 -19.03,13.44 58.2,-6.71 140.97,22.39 166.7,-40.28 v 0" /><path
         id="path104"
         style="fill:#f68c15;fill-opacity:1;fill-rule:nonzero;stroke:none"
         d="m 2972.77,2025.01 -21.27,-59.26 h 45.88 c -9,20.12 -12.32,43.62 -24.61,59.26 z m 93.96,-132 c 4.47,-4.45 15.65,-1.14 15.65,-10.05 l -4.46,-5.58 c -23.52,6.7 -53.71,-2.26 -72.74,7.81 l 21.26,5.59 c -5.59,22.39 -14.53,47.04 -26.86,64.91 l -59.25,-5.61 -21.27,-59.3 c 7.82,-4.48 17.9,-2.22 26.83,-2.22 v -8.98 c -19.04,4.5 -41.39,-7.81 -61.52,0 v 8.98 c 15.67,-5.6 22.38,7.83 26.86,17.9 L 2975,2070.9 h 24.61 l 67.12,-177.89 v 0" /><path
         id="path106"
         style="fill:#f68c15;fill-opacity:1;fill-rule:nonzero;stroke:none"
         d="m 556.199,1675.99 -115.23,-40.28 c -2.231,2.23 -6.715,7.84 -5.602,13.43 29.09,25.74 76.094,52.57 82.809,93.98 -14.567,45.86 -26.871,92.82 -48.117,136.46 l -149.926,-53.67 c 5.594,-27.95 5.594,-69.38 42.512,-82.78 21.273,-10.07 47,8.91 64.898,-5.59 v -7.85 l -155.527,-53.7 c -15.649,19.01 17.902,20.1 26.867,34.69 23.5,14.52 27.957,41.36 21.25,64.86 -6.715,13.44 -8.942,30.22 -19.02,42.5 L 134.418,1762.1 c -4.477,-21.24 20.137,-40.28 11.191,-61.53 h -7.816 c -17.898,51.46 -35.813,104.04 -51.4805,157.76 2.2266,4.48 7.8242,2.24 11.1914,3.34 4.4761,-12.31 5.5981,-24.62 13.4261,-35.78 114.121,36.9 224.875,78.29 337.859,118.59 4.488,12.29 -22.359,38.02 2.258,40.25 l 105.152,-308.74" /><path
         id="path108"
         style="fill:#f68c15;fill-opacity:1;fill-rule:nonzero;stroke:none"
         d="m 4850.08,1807.99 c -80.57,33.54 -168.95,79.43 -260.67,53.68 -35.83,-23.48 -45.87,-62.65 -51.47,-99.57 -2.26,-43.63 40.29,-71.61 72.73,-91.74 79.42,-30.23 166.68,-77.2 255.06,-45.85 35.82,31.29 58.21,78.3 40.28,126.38 -8.95,25.77 -35.8,40.31 -55.93,57.1 z m 55.93,23.5 c 35.81,-68.27 27.96,-161.11 -24.62,-220.43 -53.7,-61.53 -138.72,-78.3 -214.79,-55.94 -67.13,17.91 -128.66,81.7 -142.13,149.94 -17.88,85.03 21.27,159.97 88.4,204.71 97.35,59.32 234.96,22.42 293.14,-78.28 v 0" /><path
         id="path110"
         style="fill:#f68c15;fill-opacity:1;fill-rule:nonzero;stroke:none"
         d="m 4731.47,1305.67 c 12.31,2.23 8.96,31.31 26.86,19.02 -21.26,-40.28 -41.39,-80.57 -67.12,-118.59 l -11.19,2.25 c 3.33,11.16 12.3,20.13 16.79,30.2 -114.13,62.67 -162.24,186.85 -206.98,295.35 -33.58,-68.24 -82.8,-129.77 -113.02,-199.12 l 45.89,-26.85 c 2.23,-5.59 -3.37,-8.95 -5.61,-13.41 l -88.37,51.44 v 13.43 l 142.11,241.67 c 69.34,-108.56 145.41,-222.69 260.64,-295.39 v 0" /><path
         id="path112"
         style="fill:#f68c15;fill-opacity:1;fill-rule:nonzero;stroke:none"
         d="m 537.188,1539.48 c -80.551,-23.5 -154.383,-65.99 -220.403,-126.4 -21.265,-23.51 -26.867,-61.54 -15.672,-91.78 15.672,-29.09 36.918,-71.58 78.321,-69.35 101.816,5.6 184.593,61.53 257.32,134.25 20.125,27.96 21.269,72.73 2.226,101.79 -21.242,35.84 -57.05,59.33 -101.792,51.49 z m 107.382,-32.45 c 41.41,-55.92 38.067,-149.9 3.375,-206.97 -52.593,-72.69 -137.625,-117.47 -228.226,-96.23 -59.281,14.55 -120.809,64.87 -137.594,125.31 -26.844,86.17 7.82,170.08 78.313,223.77 55.933,41.41 149.91,57.06 211.441,17.9 27.949,-12.29 55.937,-36.93 72.691,-63.78" /><path
         id="path114"
         style="fill:#f68c15;fill-opacity:1;fill-rule:nonzero;stroke:none"
         d="m 851.559,1181.45 c -3.344,-2.23 -5.602,-6.7 -11.192,-4.45 -10.058,10.05 -15.656,27.97 -31.336,31.32 L 580.816,1006.94 c -14.539,-19.018 -19.015,-45.889 -16.789,-69.389 12.301,-38.02 52.594,-74.969 91.739,-82.77 23.496,-3.371 50.343,1.11 69.386,15.641 70.469,68.269 153.266,124.219 214.793,195.798 -12.304,14.54 -39.168,31.31 -29.09,48.09 l 80.551,-88.36 -7.828,-7.84 -30.211,26.84 -228.215,-195.79 c -32.464,-17.91 -80.582,-13.418 -109.644,7.832 -54.82,42.508 -104.02,100.707 -93.988,172.278 16.781,49.23 67.117,83.93 104.039,117.49 l 137.621,118.59 -24.633,32.43 5.598,4.48 c 39.171,-35.75 74.972,-78.27 107.414,-120.81 v 0" /><path
         id="path116"
         style="fill:#f68c15;fill-opacity:1;fill-rule:nonzero;stroke:none"
         d="m 4398.08,1106.53 c -27.97,-22.38 -54.81,-49.22 -48.11,-88.39 3.35,-32.441 33.56,-49.23 57.06,-72.71 24.64,-15.68 60.41,-26.86 88.39,-10.071 29.08,24.633 55.93,60.411 42.52,101.801 -26.87,45.86 -83.91,92.84 -139.86,69.37 z m -144.33,112.97 c -30.24,-12.32 -47,-43.64 -53.71,-72.71 1.15,-29.1 25.76,-51.48 48.12,-69.38 25.72,-16.79 55.94,-26.84 86.14,-11.19 22.38,19.02 42.51,43.63 36.93,74.97 -15.66,47.01 -68.25,86.18 -117.48,78.31 z m 144.33,13.46 c 22.36,-31.35 4.46,-75.01 0,-105.18 31.3,27.97 69.36,48.08 112.99,35.8 32.44,-8.92 55.94,-42.48 64.87,-72.73 6.74,-83.88 -39.17,-156.608 -110.73,-199.1 -24.63,-15.668 -58.21,-15.668 -88.4,-10.09 -29.08,7.84 -55.93,34.711 -63.78,63.77 -10.05,32.461 4.48,61.54 13.45,88.39 -24.64,-5.58 -47.02,-31.32 -78.32,-29.08 -34.66,-2.26 -63.79,22.38 -78.32,51.46 -19.04,67.12 16.79,124.19 62.67,171.17 33.55,30.19 71.59,54.81 120.81,40.28 16.79,-5.62 33.58,-22.38 44.76,-34.69 v 0" /><path
         id="path118"
         style="fill:#f68c15;fill-opacity:1;fill-rule:nonzero;stroke:none"
         d="m 4079.24,1044.99 c 86.15,-85.029 177.86,-191.299 265.14,-274.099 10.08,6.711 17.9,26.839 30.2,19.019 3.34,-1.121 2.26,-5.601 2.26,-7.828 l -112.99,-101.812 -7.87,7.812 32.46,34.707 c -70.49,78.313 -148.81,159.981 -222.65,236.09 l -26.83,-86.168 c -4.46,-3.34 -11.2,3.34 -16.8,5.602 21.27,48.078 36.93,100.667 38.04,153.287 5.59,4.41 10.07,14.48 19.04,13.39 v 0" /><path
         id="path120"
         style="fill:#f68c15;fill-opacity:1;fill-rule:nonzero;stroke:none"
         d="m 1144.67,878.281 c -5.59,-119.718 -2.22,-255.058 -3.34,-372.519 57.05,78.277 110.76,158.847 161.1,241.64 -14.56,13.411 -34.69,26.848 -45.88,40.278 l 8.96,7.812 c 34.67,-23.472 70.47,-51.429 101.79,-78.312 -4.45,-2.231 -6.7,-10.059 -13.44,-7.821 -11.17,12.301 -24.62,19.02 -38.03,26.832 L 1106.62,425.199 c -12.31,1.114 -26.84,13.453 -40.29,21.242 2.25,165.59 7.85,316.629 5.6,477.719 -85.032,-88.347 -167.809,-178.988 -245.016,-268.5 15.68,-11.199 30.215,-25.711 45.883,-34.68 1.113,-5.589 0,-10.07 -5.602,-13.441 -33.566,24.613 -73.832,57.07 -101.808,88.402 l 7.82,7.829 c 13.449,-8.938 24.613,-23.5 40.285,-26.84 l 245.018,260.652 c -1.12,16.789 -51.45,31.297 -19.02,45.887 l 105.18,-105.188" /><path
         id="path122"
         style="fill:#f68c15;fill-opacity:1;fill-rule:nonzero;stroke:none"
         d="m 4409.28,2078.74 c -0.49,-0.16 -0.96,-0.41 -1.4,-0.59 -63.16,-150.42 -198.57,-270.71 -361.11,-300.34 -51.45,-7.85 -105.15,-27.99 -155.5,-23.51 -34.68,17.9 -13.41,50.34 -19.01,80.55 29.1,41.42 44.75,86.17 82.75,115.23 44.76,43.63 97.36,82.79 158.89,104.03 69.39,29.09 157.76,61.53 226,22.36 17.9,2.27 34.68,4.49 53.7,7.87 -42.51,-17.9 -90.62,-25.75 -126.43,-59.3 -124.17,-74.96 -265.14,-119.72 -368.06,-233.83 -2.24,-6.69 2.25,-12.29 7.84,-13.4 49.23,19.01 89.51,73.83 139.85,97.31 49.23,26.86 98.43,58.21 153.27,71.59 65.62,51.14 132.33,103.37 207.82,131.44 0.44,1.04 0.9,2.06 1.33,3.1 -0.76,2.47 -3.78,3.59 -5.5,5.33 h 7.79 c -0.71,-1.81 -1.56,-3.55 -2.33,-5.33 0.22,-0.72 0.33,-1.51 0.1,-2.51 z m -552.69,-86.17 c -7.85,115.25 -15.66,220.43 -35.83,330.06 -4.43,16.76 -12.32,33.54 -13.43,51.47 -10.04,58.18 0,123.07 -17.9,176.74 64.87,-51.44 83.91,-127.55 96.23,-205.86 7.81,-10.03 7.81,-23.49 11.19,-35.81 23.5,-91.73 71.61,-199.13 10.08,-289.75 -14.54,-14.5 -32.44,-22.39 -50.34,-26.85 z m -76.07,375.93 c 22.36,-120.83 48.11,-241.67 38.03,-372.56 -19.01,3.37 -25.72,20.16 -40.29,31.33 -20.13,38.03 -35.8,81.66 -51.44,124.2 -10.09,45.86 -12.34,86.14 -17.93,134.26 3.36,92.83 5.59,199.1 61.53,276.34 19.04,-61.56 -4.46,-129.79 10.1,-193.57 z m -2313.63,-45.87 c -30.21,-31.33 -72.72,-54.8 -91.74,-96.23 -17.9,82.8 32.44,148.78 93.97,187.96 44.77,29.06 95.1,42.5 147.67,51.45 h 5.6 c -54.83,-42.52 -91.74,-107.39 -155.5,-143.18 z m 163.34,145.41 h 7.83 c 0,-55.93 -14.55,-111.87 -53.69,-155.47 -14.55,-40.31 -55.95,-71.61 -77.22,-107.41 -12.3,-15.66 -35.8,-16.79 -40.26,-38.05 -22.38,-15.64 -48.11,-38.02 -67.12,-59.26 -3.37,41.36 -19.02,79.41 10.07,112.97 7.86,27.99 41.41,35.83 59.28,61.54 50.35,55.93 120.83,96.23 149.93,166.7 7.83,2.22 13.42,10.06 11.18,18.98 z m -450.86,180.17 c -34.7,22.36 -35.81,60.39 -30.21,96.21 14.51,17.89 4.48,40.28 11.19,61.53 14.51,-4.47 33.55,3.33 40.26,19.03 7.85,16.76 -1.11,36.91 -13.42,45.85 11.19,4.48 25.73,2.25 29.09,15.68 11.2,15.64 4.49,36.91 -4.48,51.45 l -24.61,11.19 c 44.74,45.88 72.72,118.61 55.94,195.79 8.96,-11.19 26.86,-13.42 40.28,-7.82 22.37,7.82 25.71,33.54 19.02,53.67 -11.19,11.2 -24.61,27.99 -45.88,21.24 v 29.13 c 51.47,-5.6 114.12,-14.55 164.46,7.82 87.26,16.8 163.36,66.01 230.48,132.02 5.59,13.43 20.13,23.49 16.79,40.27 114.1,-14.54 238.3,-5.6 326.67,64.88 v 7.84 c -101.82,118.58 -242.79,186.85 -402.77,174.52 -43.63,-14.54 -107.39,-10.05 -144.31,-57.05 0,15.68 -3.36,32.44 -11.19,45.88 31.33,2.23 63.75,13.43 93.97,24.62 4.49,10.05 14.56,25.72 26.87,32.43 4.46,-13.42 21.24,-6.71 32.43,-8.93 17.9,7.84 21.24,25.72 19.01,43.63 -3.35,10.04 -21.25,16.75 -11.18,29.09 10.07,29.09 38.03,48.08 59.3,67.13 35.81,-87.27 129.77,-139.85 212.58,-176.77 90.6,-40.27 199.13,-80.55 303.17,-40.27 23.5,4.49 54.82,2.23 77.2,2.23 -44.76,101.82 -130.91,204.75 -249.48,214.83 -70.5,57.08 -176.78,70.47 -262.91,51.48 5.58,10.05 -4.49,45.85 24.61,45.85 59.3,10.08 138.73,13.42 198.02,7.83 49.23,-8.91 95.12,-24.61 142.12,-38.01 104.04,-26.84 222.62,-73.86 331.15,-32.44 70.47,15.65 128.66,63.77 190.19,102.94 104.06,-17.9 182.37,-97.34 289.75,-105.19 -80.54,-27.96 -158.87,-78.29 -224.87,-142.08 4.47,-21.24 29.09,-33.55 44.75,-45.85 62.65,-40.29 144.32,-33.58 220.4,-40.29 132.01,-11.19 255.07,17.9 365.86,93.96 49.21,5.6 73.83,-46.99 115.22,-69.37 20.16,-15.65 35.82,-25.73 55.93,-40.26 -3.32,-12.31 -14.51,-20.16 -10.03,-35.84 5.59,-13.42 14.51,-23.49 29.07,-29.09 12.31,-1.11 24.61,-1.11 32.47,11.19 l 2.23,-3.34 c 3.36,4.45 5.58,16.78 13.41,7.85 61.53,-33.58 119.74,-87.28 137.62,-155.53 -104.05,63.82 -221.5,97.36 -341.24,124.2 -130.88,7.86 -280.81,-5.6 -356.87,-126.39 5.59,-15.68 27.95,-3.38 40.25,-11.2 48.12,-15.68 82.81,-48.12 128.67,-69.37 123.06,-67.13 271.87,-104.03 421.8,-74.99 l 115.21,50.37 c 2.26,-16.79 8.97,-35.81 23.53,-45.89 46.97,16.79 29.1,-49.22 64.84,-61.52 45.88,10.07 31.36,-48.12 67.13,-55.94 14.57,-11.19 5.6,-30.23 7.88,-45.86 21.22,-43.66 78.29,-72.73 74.94,-126.43 -48.11,72.73 -115.24,135.37 -201.37,153.27 -20.14,14.53 -53.7,5.6 -74.95,7.84 -40.32,-8.93 -74.98,-32.43 -107.44,-61.52 -78.33,17.9 -155.47,14.54 -230.45,-7.85 8.94,-29.1 24.63,-61.52 36.91,-91.74 30.21,-63.78 43.64,-137.63 110.77,-184.6 65.99,-77.2 174.51,-72.71 247.23,-147.67 67.13,-60.41 154.36,-58.21 243.87,-59.3 -7.82,-22.38 12.34,-32.44 19.05,-48.11 -15.66,-3.35 -26.84,-15.66 -30.24,-30.22 -6.72,-20.12 10.08,-33.54 22.39,-45.86 6.73,3.33 7.85,-4.48 7.85,-10.06 -2.26,-19.02 -33.56,-6.72 -38.04,-30.22 -5.6,-20.13 7.82,-36.91 24.61,-42.51 h 7.86 c -12.31,-51.46 -16.81,-105.15 -38.05,-153.27 -21.26,107.41 -23.49,224.88 -107.41,303.19 -23.46,19.02 -38.02,50.35 -69.38,57.06 -39.14,-41.4 -61.53,-90.63 -69.35,-145.45 -26.86,-83.92 -32.47,-213.69 0,-300.94 25.72,-47 30.21,-104.04 61.54,-149.93 19.01,-48.09 81.66,-42.5 80.53,-99.54 27.99,-39.15 -19.01,-77.2 -5.58,-120.84 -29.1,4.48 -29.1,40.3 -40.3,61.54 -11.16,110.75 -115.18,176.77 -185.7,255.08 -44.74,44.74 -111.86,51.46 -176.77,53.69 -11.2,-26.88 -1.11,-49.23 2.28,-77.22 3.31,-77.14 20.11,-152.16 59.26,-212.54 -13.44,-10.06 -29.08,-26.84 -48.09,-32.44 -54.83,-51.47 -102.93,-120.83 -120.82,-195.79 -11.18,-22.38 -10.07,-49.22 -21.27,-72.73 -15.62,-50.32 -27.96,-115.22 -11.18,-165.56 -3.32,-20.13 12.32,-31.33 13.44,-49.23 5.6,-12.3 22.38,-22.38 24.62,-34.69 -11.18,8.96 -30.19,6.73 -43.64,3.37 -7.83,-7.85 -17.9,-19.04 -21.21,-30.24 -10.09,7.86 -32.47,7.86 -48.11,0 -21.27,-11.18 -14.54,-36.89 -15.68,-53.68 -42.5,-36.92 -91.74,-58.19 -143.16,-74.97 63.75,91.76 137.57,180.14 164.45,287.55 27.96,59.27 15.66,132 0,193.53 -1.11,7.85 7.82,20.13 -3.37,26.84 -87.23,-13.41 -167.8,-62.64 -228.21,-124.17 -22.39,-32.45 -50.34,-79.44 -90.64,-96.23 -45.85,-61.53 -108.52,-115.24 -120.81,-191.32 -16.75,-57.06 -21.24,-118.59 -38.02,-176.74 -30.25,-2.27 -57.06,19.01 -72.73,45.85 -4.49,13.44 -20.13,26.85 -34.69,29.09 -17.9,3.37 -42.5,7.85 -53.68,-13.42 -33.58,-5.59 -67.13,-13.45 -96.23,-29.1 -7.81,1.11 -20.13,-3.34 -21.24,7.86 -5.59,40.26 -21.27,81.65 -38.06,120.8 -96.2,158.87 -246.13,297.61 -416.18,373.65 -42.52,17.93 -98.46,-1.11 -139.86,4.48 l -5.57,-4.48 c 10.06,-49.19 45.86,-87.24 51.46,-137.56 8.94,-14.55 12.31,-32.46 19.01,-48.12 19.03,-57.06 62.66,-99.57 101.83,-145.46 l 158.86,-120.8 c -71.6,7.84 -153.27,19.04 -231.59,22.38 2.23,11.2 0,35.8 -19.04,42.49 -11.19,5.6 -24.62,1.12 -34.69,-5.59 l -2.23,-2.24 -3.37,2.24 c 12.3,7.85 15.67,20.15 19.02,32.47 3.37,15.63 -16.76,25.71 -26.84,34.65 -11.19,6.72 -24.63,1.12 -34.69,-5.6 -4.49,96.23 44.77,211.47 0,308.8 -8.94,39.15 -12.32,87.26 -32.44,116.36 -13.44,50.34 -32.43,98.46 -55.93,144.3 -13.44,32.47 -20.16,67.13 -38.04,97.34 -30.2,48.11 -70.49,104.05 -117.49,136.51 -16.76,2.26 -13.42,-15.66 -22.36,-24.62 -8.97,-33.57 -17.9,-67.13 -29.1,-98.45 -7.84,-55.93 -39.14,-100.67 -34.68,-161.09 -5.6,-99.57 59.3,-183.48 96.21,-271.85 19.03,-60.4 54.83,-114.12 86.16,-168.94 -19.03,25.71 -44.76,22.36 -64.9,45.87 -79.41,42.5 -72.7,138.71 -125.3,201.37 0,16.78 -20.13,29.11 -24.61,42.52 10.08,6.7 19.01,14.55 26.84,26.85 4.49,16.79 -6.71,33.56 -21.25,45.85 -14.52,0 -42.51,7.86 -48.11,-15.63 -22.37,5.59 -35.8,31.31 -57.05,36.91 l -2.25,7.82 c 13.44,-1.11 25.75,-7.82 36.93,0 11.18,12.31 22.37,26.85 13.44,43.64 -3.37,10.06 -13.44,20.12 -23.5,23.49 -13.43,7.84 -26.87,-1.11 -38.04,-7.83 -3.36,-12.29 -13.44,-17.89 -21.26,-26.86 -10.08,5.59 -19.04,17.91 -26.85,24.6 71.59,67.13 41.38,176.78 55.94,257.34 92.86,64.89 164.46,144.32 223.74,236.09 43.66,59.27 55.96,130.89 71.61,201.39 -10.08,16.75 -26.84,2.23 -40.26,3.31 -53.71,3.37 -106.3,-13.43 -152.16,-38.04 l -3.34,-2.23 c -48.11,-20.14 -85.03,-63.78 -128.66,-101.81 -32.44,44.74 -52.59,98.43 -96.22,134.26 l -13.42,2.22 c 16.78,11.2 -12.31,36.91 13.42,38.06 163.35,14.54 184.59,208.1 259.57,318.85 15.65,46.98 35.81,91.75 35.81,145.44 8.94,72.7 -6.73,144.32 -3.35,214.8 -42.51,-4.46 -83.91,-30.2 -123.06,-53.67 -86.17,-51.48 -134.26,-148.81 -182.36,-233.83 M 3818.55,1710.68 c -13.42,-2.26 -23.49,3.34 -34.69,5.59 v 34.66 c 10.09,2.26 16.79,14.57 29.1,13.45 20.13,0 26.86,-16.76 26.86,-34.69 0,-10.08 -13.45,-12.33 -21.27,-19.01 z m 195.79,-77.23 c 62.65,-14.52 128.66,-21.25 177.89,-67.13 -80.57,-25.7 -181.26,-6.72 -268.51,-30.21 -117.47,-10.08 -233.83,-13.45 -331.16,-80.58 l -104.05,-88.34 c 113.01,183.47 307.67,293.12 525.83,266.26 z m 110.76,-126.42 c -104.06,-85.02 -223.74,-92.84 -358,-97.33 -81.68,-17.89 -165.58,-38.06 -243.89,-58.18 1.11,16.78 20.12,23.48 32.42,31.29 76.1,63.8 166.7,109.63 265.15,116.35 120.84,6.71 222.65,25.73 341.24,44.77 12.32,2.26 27.98,6.72 32.44,16.76 -2.23,-25.67 -45.86,-39.11 -69.36,-53.66 z m -644.41,-105.15 c 21.22,49.23 44.74,97.34 61.53,147.66 15.65,67.13 23.5,146.58 23.5,209.25 0,5.59 1.11,10.04 5.6,13.44 35.77,-17.9 70.44,-39.17 107.39,-53.71 25.72,-3.35 54.81,-13.42 74.95,-15.65 0,-10.06 -10.03,-19.04 -2.23,-29.11 l 15.67,-19.01 c -13.44,-10.06 -26.87,-15.66 -42.52,-19.03 -91.73,-62.67 -186.85,-132.01 -239.4,-233.81 h -4.49 z m -91.74,-82.77 c -24.62,109.61 29.1,203.61 45.86,308.76 26.86,58.19 41.43,120.83 80.57,174.55 l 5.59,10.05 c 20.14,-15.65 4.49,-51.45 13.45,-74.96 -5.6,-116.35 -36.92,-236.06 -86.17,-337.89 -32.45,-20.12 -21.27,-68.24 -59.3,-80.51 z m 61.52,797.67 c 7.86,13.42 31.33,2.24 51.47,0 30.22,-5.59 54.81,-21.27 80.56,-38.04 60.42,-76.08 154.39,-126.42 176.74,-226.01 2.29,-26.84 16.79,-48.09 19.05,-74.95 -85.03,62.63 -142.1,140.96 -214.83,214.79 -34.66,41.42 -70.44,88.39 -107.38,128.67 l -5.61,-4.46 z m 285.31,-344.58 c 5.56,-11.18 21.24,-19.01 17.88,-34.69 -29.08,5.61 -58.17,11.19 -88.35,16.79 -114.14,48.09 -194.68,157.73 -201.39,281.92 l -7.84,63.78 c 71.58,-119.72 178.99,-230.48 279.67,-327.8 z m -384.86,-429.62 c -11.2,3.34 -13.45,20.13 -21.26,30.2 -40.28,73.83 5.61,152.16 21.26,222.63 26.83,88.38 65.99,186.85 153.28,236.08 1.12,-17.9 -20.15,-38.05 -26.85,-59.29 -45.86,-66.01 -61.52,-139.84 -93.98,-214.79 -19.04,-68.3 -41.42,-140.99 -32.45,-214.83 z m -311.02,-268.51 -61.55,-7.85 c 31.3,55.96 99.57,34.69 142.08,70.46 40.3,17.92 79.45,43.65 109.65,80.59 17.9,6.7 41.4,14.52 43.63,36.88 l 26.81,-13.41 C 3225.59,1177 3124.93,1135.59 3039.9,1074.07 Z m 421.77,-155.531 26.84,-21.207 c -126.43,64.84 -255.09,137.568 -400.52,161.058 11.2,34.72 51.49,21.27 78.3,32.43 127.54,6.71 227.14,-68.21 295.38,-172.281 z m -86.15,-42.488 c -72.71,8.941 -148.82,30.211 -214.82,63.789 -29.09,27.961 -65.99,36.91 -86.14,70.47 17.88,12.3 38.03,0 57.05,0 123.05,-26.841 239.41,-71.619 351.29,-126.431 -27.93,-6.707 -77.16,-8.938 -107.38,-7.828 z m -598.53,166.689 c 5.58,44.76 8.9,90.62 19.01,134.26 7.82,57.08 21.24,111.89 58.16,157.75 42.51,73.84 133.14,105.16 164.49,182.34 46.99,49.23 110.76,72.73 166.69,107.42 -42.49,-132.01 -154.39,-229.35 -241.67,-340.1 -53.7,-87.28 -124.17,-152.16 -166.68,-241.67 z m 155.47,29.1 c -43.61,-27.96 -90.61,-54.81 -136.49,-67.13 h -5.6 c 83.91,125.31 166.7,249.47 265.17,364.74 70.47,62.64 126.41,139.84 137.6,231.58 h 5.6 c 4.47,-55.94 16.78,-117.5 -11.21,-166.7 -19.01,-95.07 -98.4,-159.97 -139.83,-243.88 -36.9,-42.55 -69.35,-90.63 -115.24,-118.61 z m 0,-149.899 v 2.219 c 14.55,-1.109 23.52,-14.508 34.7,-21.238 91.75,-53.68 195.79,-85.043 306.55,-86.172 -6.73,-7.82 -10.07,-17.879 -19.05,-24.609 -58.18,43.648 -140.95,26.859 -209.2,45.879 -87.25,49.222 -167.84,90.621 -271.88,99.562 5.6,8.949 22.39,4.481 30.21,13.43 39.17,-17.883 82.84,-33.582 128.67,-29.071 z m -230.43,26.84 c -27.99,-5.601 -55.96,-25.73 -83.92,-13.449 12.31,26.84 59.31,53.707 30.23,90.648 -15.67,3.31 -13.44,-13.45 -24.62,-19.04 -29.11,-39.17 -82.82,-43.639 -126.42,-58.19 -6.71,2.262 -6.71,11.191 -2.26,15.68 1.12,11.179 19.05,19.011 13.46,34.672 -11.2,12.288 -10.09,27.958 -21.27,40.278 -16.77,4.47 -26.84,4.47 -43.63,0 16.79,30.2 53.7,32.43 80.54,48.1 19.04,-1.13 42.52,12.32 53.7,-7.85 -3.31,-19.03 -19.01,-33.56 -29.09,-50.36 14.57,-4.44 29.09,7.88 40.29,21.27 29.1,13.43 16.79,79.44 61.53,42.51 7.82,-21.26 -1.11,-42.51 -13.42,-59.3 4.47,-7.83 17.9,-5.6 24.62,-2.22 20.13,11.19 27.94,42.5 53.7,19.01 14.52,-11.19 15.63,-21.27 17.89,-38.03 -10.09,-21.248 -21.28,-42.49 -31.33,-63.729 z M 2817.24,803.32 c 14.53,-25.718 50.35,-27.961 50.35,-59.257 -1.12,-20.133 -4.46,-42.5 -23.48,-53.704 -55.94,-39.168 -141,-36.91 -201.38,-32.449 -6.75,8.93 -15.67,6.731 -24.65,8.93 -5.59,-7.809 -16.78,-19.008 -23.5,-22.379 0,16.789 -3.33,31.32 7.84,45.898 47.01,41.411 110.78,24.621 166.71,13.422 6.71,-2.218 11.17,4.489 15.65,7.828 -5.6,36.922 -38.04,69.391 -67.13,89.52 -26.83,27.961 -70.47,15.641 -96.19,44.73 32.42,2.27 57.04,7.86 88.37,5.61 l 107.41,-48.149 z m -333.38,-93.961 c -10.09,-31.32 -38.03,-68.238 -74.96,-69.367 -72.71,-13.453 -121.94,42.5 -174.54,85.02 10.08,12.301 25.7,8.949 34.7,24.629 31.31,-29.09 57.04,-72.711 93.96,-88.391 14.54,-2.219 23.49,10.07 26.87,21.262 14.52,59.289 -19.05,116.359 19.01,168.929 46.97,-32.441 82.78,-80.55 74.96,-142.082 z m -281.93,155.5 c -62.66,-19.039 -126.44,-10.046 -184.6,-40.269 -26.87,-5.59 -55.94,-8.949 -80.54,-19.039 10.04,36.929 54.79,34.679 85,43.629 62.67,30.222 138.74,30.222 199.13,67.133 11.18,1.117 21.27,5.597 29.09,13.429 39.15,19.039 87.26,15.668 126.41,34.719 31.34,-2.289 42.51,58.149 72.73,24.609 l 5.59,-5.601 -21.25,-43.629 c -73.82,-31.328 -166.69,-19.02 -231.56,-74.981 z m -284.18,714.901 c 164.45,23.51 277.46,-129.8 383.74,-231.61 22.38,-42.48 66.01,-78.3 78.32,-126.39 23.51,-31.31 40.26,-68.27 48.09,-107.44 -155.53,144.35 -276.34,313.26 -446.4,435.21 -22.35,7.88 -42.48,19.05 -63.75,30.23 z m 335.62,-451.98 c -97.33,126.4 -293.11,201.36 -314.35,375.91 l -32.44,59.28 c 108.49,-72.69 198.01,-174.54 295.35,-274.08 61.53,-61.52 127.54,-127.54 195.78,-195.78 10.05,-2.29 17.91,-7.87 24.62,-15.67 -66.02,-14.56 -118.61,20.09 -168.96,50.34 z m -406.09,-109.64 c -15.69,-3.34 -30.22,-11.2 -44.75,-15.69 -45.88,-24.61 -101.82,-30.2 -151.04,-37.989 -17.91,-7.871 -35.81,-14.559 -53.71,-21.281 47,59.27 114.12,133.14 199.15,149.93 43.63,17.9 88.37,33.55 134.26,45.86 87.26,21.27 164.44,-15.65 251.71,-11.19 13.43,-1.12 20.15,-6.71 26.85,-17.91 -129.77,-7.84 -246.13,-42.52 -362.47,-91.76 z m 362.47,48.09 c -54.82,-44.73 -117.46,-72.71 -187.93,-82.761 -23.48,-6.719 -45.86,-17.899 -67.13,-32.457 -86.17,-39.16 -199.13,-13.43 -295.35,-32.442 l -63.76,3.371 c 42.51,20.122 91.74,7.809 130.88,26.84 134.26,34.688 260.69,89.499 392.69,128.659 29.1,6.71 60.41,6.71 90.63,10.06 v -21.27 z m -383.74,233.83 c -17.89,5.61 3.34,20.13 -7.86,29.08 -27.96,145.46 -95.09,274.13 -134.26,413.98 -23.48,92.82 -42.48,181.24 -45.85,279.7 104.05,-140.98 151.02,-309.95 193.54,-478.86 34.71,-76.07 4.5,-165.59 -5.57,-243.9 z m -74.96,61.56 c -96.22,114.1 -145.44,248.35 -187.94,383.7 -15.64,99.59 35.81,190.18 48.08,287.55 7.89,-114.13 0,-223.74 48.12,-324.45 35.81,-116.35 89.51,-226.01 126.42,-341.23 -8.95,-6.74 3.35,-17.9 5.6,-26.84 2.23,-17.91 10.06,-32.45 11.2,-51.46 -26.87,17.9 -42.51,45.86 -51.48,72.73 z m -630.99,-29.13 c 91.74,-14.53 201.39,8.95 289.75,-30.2 90.62,-31.33 179.03,-66.01 271.88,-93.97 33.56,-1.14 64.87,-16.78 96.23,-17.9 -41.4,-40.28 -117.5,-12.31 -168.96,-24.62 -164.45,-15.66 -328.92,32.43 -454.2,145.42 -20.17,17.91 -50.37,13.46 -69.41,36.93 79.43,27.96 153.3,80.57 249.49,59.28 91.74,-14.54 179.03,-47 270.74,-53.71 54.83,-26.84 113.01,-44.74 156.64,-96.2 10.07,-15.67 26.84,-29.1 31.32,-45.89 -21.25,10.09 -45.86,12.32 -69.36,19.02 -93.98,29.1 -189.07,58.21 -281.93,90.63 -92.85,36.93 -190.18,30.24 -293.12,26.87 -15.67,4.46 -35.82,3.34 -44.74,-5.6 l 15.67,-10.06 z m 166.69,383.78 c -91.73,79.41 -199.09,135.37 -306.539,182.35 34.699,4.45 74.949,4.45 110.759,0 27.98,-10.06 59.3,-11.2 85.03,-26.85 85.03,-16.79 113.01,-100.71 187.96,-139.85 100.68,-35.83 140.96,-148.79 170.06,-241.64 -69.38,80.53 -156.64,159.95 -247.27,225.99 z m 82.81,-203.64 c -45.89,59.29 -115.24,89.51 -184.6,104.03 -73.83,32.45 -151.04,89.52 -180.13,166.71 -13.424,38.03 -38.037,71.58 -51.463,109.62 185.713,-91.75 365.853,-223.75 517.983,-383.73 21.24,-13.42 34.66,-39.17 59.27,-48.09 -43.6,12.32 -114.09,16.78 -161.06,51.46 z m -107.42,944.24 c 16.79,-6.7 23.5,-27.97 34.69,-42.49 16.79,-52.61 67.13,-91.75 51.46,-158.88 -3.32,-130.92 32.46,-262.93 -11.18,-393.83 -7.84,-13.42 -14.53,-29.07 -26.86,-40.27 -13.42,26.85 -6.71,64.86 -15.65,96.23 0,20.13 -11.19,44.75 -11.19,64.87 -7.85,16.79 -3.37,32.44 -10.08,50.35 -14.54,100.69 -5.59,220.4 -7.82,325.57 -13.42,27.99 1.12,67.13 -3.37,98.45 z m 24.61,465.44 c 26.87,77.16 87.29,155.48 161.12,201.35 16.77,14.55 25.73,31.33 48.1,36.93 -41.41,-86.15 -101.8,-174.54 -145.43,-265.17 -32.46,-87.25 -77.21,-170.06 -85.03,-266.25 l 4.48,-5.6 c 21.25,26.84 35.81,61.53 49.23,93.97 4.45,36.91 30.2,64.9 31.32,101.81 22.36,50.34 49.23,99.57 72.73,147.7 5.59,6.71 11.16,19.01 16.75,26.82 40.29,43.65 49.23,100.71 69.39,153.29 15.64,-34.66 23.5,-78.28 26.84,-120.81 4.49,-106.3 -61.53,-183.47 -96.23,-274.1 -35.8,-55.94 -59.27,-130.91 -124.17,-161.12 -14.07,-9.36 -32.84,-8.64 -47.79,-17.38 -2.05,-2.92 -4.48,-5.35 -8.15,-6.07 2.5,2.5 5.28,4.4 8.15,6.07 4.21,5.99 6.36,14.75 10.87,20.78 -2.23,15.66 -6.71,35.8 -24.61,40.28 -15.67,3.34 -27.98,-3.34 -38.04,-16.79 29.1,99.56 16.8,211.43 72.73,300.94 l -2.26,3.35 z m -153.27,-770.84 c 1.11,31.3 8.97,62.64 7.85,96.2 13.45,48.11 17.88,104.04 57.05,137.63 l 53.71,74.94 -11.2,-30.2 -2.24,-176.77 c -13.45,-62.66 1.13,-119.7 -3.35,-182.37 12.31,-67.13 20.13,-137.57 24.61,-204.7 -27.98,7.83 -46.99,22.39 -70.49,43.63 -50.34,67.1 -44.75,161.07 -55.94,241.64 z m -327.781,-48.13 c -53.687,45.86 -99.59,100.68 -144.332,152.16 14.535,1.12 34.684,0 50.332,-4.46 73.844,-29.12 135.371,-81.67 204.754,-120.84 l 50.34,-26.85 c 51.457,-49.23 142.077,-67.13 164.457,-143.18 -123.06,13.42 -227.102,70.45 -325.551,143.17 z m -21.269,190.19 c 128.656,27.98 200.261,-90.64 289.77,-145.44 31.33,-24.62 35.81,-61.54 40.27,-98.43 -13.43,0 -20.14,13.41 -32.44,15.64 -86.167,57.07 -175.682,100.68 -255.089,163.36 -50.339,35.8 -105.164,49.2 -168.918,45.88 39.141,22.36 86.141,1.12 126.407,18.99 z m 394.94,249.51 c 13.42,0 29.09,-6.7 32.43,-21.27 3.37,-11.19 -5.59,-20.13 -13.42,-24.6 -12.31,-5.6 -25.73,0 -35.81,5.58 -6.7,16.79 -4.47,38.02 16.8,40.29 z m -48.12,663.41 c 19.02,146.58 -66.01,274.1 -62.64,421.8 -4.48,3.35 -1.14,13.42 -10.07,10.08 -11.2,-25.76 0,-51.5 -11.2,-77.21 -10.05,-136.5 80.55,-250.6 51.48,-383.74 5.59,-62.65 19.01,-119.7 40.26,-174.52 -71.61,80.55 -116.36,221.51 -115.24,356.87 -17.9,55.94 -26.844,125.33 -11.16,184.6 10.04,36.9 15.65,73.84 40.25,105.17 52.6,-32.44 100.71,-88.38 123.07,-147.71 70.49,-124.17 72.73,-321.07 30.21,-454.21 -16.79,-24.62 -22.36,-62.64 -53.71,-71.59 -3.32,5.58 -7.83,11.17 -5.6,17.88 h 7.88 c -12.33,66.01 -32.49,135.39 -23.53,212.58 z m 2.23,-373.66 c -6.7,-24.62 -7.82,-51.47 -19.01,-74.97 -43.63,-5.59 -83.91,36.91 -115.24,70.47 -15.652,23.51 -44.75,43.63 -42.515,74.98 -15.652,57.05 -86.145,80.57 -105.156,134.25 -42.528,67.1 -63.766,145.43 -53.707,230.46 42.515,-49.2 61.527,-92.83 109.636,-139.86 69.383,-114.1 135.372,-229.33 172.292,-356.86 5.6,-3.37 7.88,-12.32 15.67,-10.07 22.38,7.85 -10.07,17.91 0,29.09 -23.5,119.73 -91.74,222.63 -149.903,327.81 -33.578,40.27 -67.129,83.9 -96.223,128.66 l -22.383,38.01 c 67.129,-55.93 143.219,-100.7 210.349,-161.1 14.51,-55.93 64.84,-96.21 80.54,-151.01 21.25,-39.17 14.54,-94 15.65,-139.86 z m 80.55,1117.65 c 13.47,-35.81 31.35,-74.98 51.48,-110.75 10.05,-31.33 23.5,-60.4 29.09,-93.97 3.32,-55.94 7.83,-115.24 -13.44,-168.92 -4.49,-40.31 -32.46,-71.61 -55.96,-104.05 -14.51,13.43 4.48,34.67 -5.6,53.68 -2.23,128.66 15.67,257.32 5.6,383.72 l -5.6,5.6 c -7.82,-15.67 -6.71,-34.69 -11.17,-51.45 -15.67,-105.19 -23.49,-220.4 -23.49,-314.4 -13.42,38.03 -49.23,66.02 -64.9,101.82 -8.91,112.99 14.55,220.4 93.99,298.72 z m 289.78,-510.18 c -68.24,-51.46 -140.96,-104.01 -217.06,-142.07 -4.46,4.47 -7.82,14.53 -3.31,21.26 53.67,57.05 99.56,140.97 174.51,171.15 21.24,-14.51 32.45,-30.16 45.86,-50.34 z m 120.84,-21.24 c -2.29,-25.7 -25.76,-50.34 -48.11,-67.13 -57.07,-52.58 -130.91,-63.79 -201.39,-83.91 -25.73,3.37 -47,-5.6 -72.72,-2.23 10.08,19.01 32.44,26.84 48.11,40.25 66.01,40.29 133.11,75 196.9,120.84 26.84,1.13 51.45,-13.42 77.21,-7.82 z m -69.39,53.73 c -34.66,11.16 -66.01,41.38 -88.37,69.35 l 7.83,-5.6 c 139.85,4.49 285.3,-12.3 416.18,-48.08 l 32.43,2.22 c 3.37,5.6 -5.58,16.8 -13.41,16.8 -69.39,4.48 -123.07,45.87 -193.54,45.87 -71.6,16.78 -155.52,6.75 -225.98,26.85 -8.98,0 -19.05,-2.23 -26.88,2.26 94,86.14 261.8,67.12 368.07,15.64 48.1,-21.24 102.94,-60.39 126.41,-109.61 -123.04,-81.73 -267.37,-39.2 -402.74,-15.7 z m -220.39,-24.63 c 23.49,27.97 31.32,65.99 61.53,88.37 l 5.6,11.18 c 17.89,-6.71 33.57,-19.01 40.28,-34.68 -88.4,-22.36 -111.9,-125.3 -185.73,-170.06 3.36,44.79 33.57,91.73 78.32,105.19 z m 55.93,354.64 c 22.39,140.97 76.09,270.76 161.12,386.01 42.49,43.63 92.83,76.06 151.01,83.89 l 5.61,-5.6 c 21.26,-92.86 13.41,-190.19 -49.23,-262.91 -44.74,-102.91 -74.94,-217.04 -161.1,-298.69 -14.56,-5.6 -33.57,-11.19 -50.34,-4.49 -4.48,2.23 -2.24,7.82 -3.36,13.42 7.82,21.25 16.78,41.43 30.21,61.53 60.42,73.84 50.33,177.89 96.22,257.32 25.73,41.43 36.91,89.51 67.12,128.66 6.72,36.92 44.75,62.65 61.53,93.97 -2.24,6.73 -11.18,6.73 -15.67,3.37 -74.96,-91.77 -128.66,-192.45 -168.91,-298.75 -11.2,-57.05 -29.1,-110.76 -61.54,-157.73 -14.56,-29.09 -31.35,-57.07 -51.47,-83.91 -19.03,22.38 -7.83,52.56 -11.2,83.91 z m 389.35,10.08 c 97.33,-105.16 251.71,-68.24 365.84,-134.25 15.66,0 29.07,-17.9 42.51,-7.85 -8.95,19.04 -32.46,26.84 -48.11,40.28 -29.09,8.94 -52.59,30.21 -86.14,30.21 -51.48,14.56 -101.82,11.2 -149.93,34.69 -58.19,22.39 -108.53,60.42 -164.49,88.4 26.87,19.01 73.85,8.94 107.42,7.82 19.01,-7.82 38.03,-15.64 57.04,-23.49 71.61,-35.81 147.69,-62.65 222.66,-89.52 33.55,-25.69 54.82,-54.81 74.95,-88.36 v -10.06 c -85.02,-19.04 -177.88,-15.65 -255.09,17.91 -90.62,29.09 -180.11,76.06 -241.64,156.63 27.98,11.17 50.36,-15.7 74.98,-22.41 z m 8.93,218.17 c 10.09,-1.11 1.14,10.06 7.85,13.42 29.08,45.86 70.48,100.68 126.4,112.99 126.45,54.82 214.81,186.87 343.47,238.29 42.52,10.09 90.63,-8.93 128.66,5.61 -6.71,-20.13 -34.67,-24.62 -48.09,-42.52 -144.32,-49.19 -258.45,-163.32 -381.53,-252.84 -49.2,-36.89 -114.11,-41.4 -158.88,-86.14 -3.31,-10.08 -15.66,-2.25 -15.66,-13.44 -11.15,7.85 1.15,14.55 -2.22,24.63 z m 246.15,-24.63 c -67.12,-16.8 -147.7,-49.2 -217.05,-13.42 4.48,16.76 23.49,23.47 34.68,34.66 52.57,22.38 106.29,40.28 153.27,76.09 73.85,71.59 164.47,118.58 243.9,176.74 33.56,19.05 70.47,34.69 105.17,51.48 l 32.43,21.25 c -53.7,-151.02 -185.7,-309.86 -352.4,-346.8 z m 478.84,-32.44 c -35.84,-77.18 -124.18,-82.77 -201.38,-85.04 l -8.97,4.46 c -67.1,-1.11 -132,32.47 -195.76,53.71 -20.16,5.6 -40.28,11.2 -61.56,16.79 25.75,13.42 60.42,15.66 88.4,29.1 66.02,13.42 118.57,-22.39 182.36,-21.28 l 35.81,-5.59 c 50.35,3.4 111.87,-6.68 161.1,7.85 z m 7.81,72.72 c 10.09,-5.59 32.45,-14.53 15.68,-29.09 -27.98,-31.33 -83.92,-30.21 -120.83,-21.25 -86.14,3.34 -166.7,23.5 -249.47,34.69 32.44,19.02 52.6,46.97 88.4,59.28 100.65,13.45 177.86,-20.13 266.22,-43.63 z m -26.84,139.85 c 19.05,-7.85 36.93,-16.78 53.71,-29.09 127.52,-50.37 231.58,-159.98 370.31,-185.74 69.35,-19.01 143.19,-43.62 206.98,-86.14 l 34.69,-15.65 c -8.95,-15.67 -32.43,-15.67 -48.09,-11.19 -71.62,15.65 -147.7,21.24 -214.83,48.12 -87.26,5.57 -144.33,89.48 -231.58,93.94 -70.5,17.93 -148.83,74.98 -157.76,153.29 l -13.43,32.46 z m -24.61,26.85 -7.84,7.85 c 52.58,7.82 107.41,7.82 166.71,0 97.37,-12.32 172.3,-79.44 268.51,-96.23 104.04,-42.51 167.81,-154.38 260.65,-220.43 l 2.27,-7.81 c -22.4,6.7 -41.41,26.84 -61.56,40.25 -102.91,80.58 -249.45,55.97 -349.06,144.34 -78.3,53.68 -171.17,72.72 -249.47,124.17 -13.44,-2.2 -20.16,-1.08 -30.21,7.86 z m 368.08,53.7 c -21.27,51.48 -24.64,108.53 -11.2,163.35 70.47,-24.61 133.12,-60.41 183.49,-123.06 57.06,-80.55 91.73,-170.06 136.48,-255.07 12.3,-42.51 7.84,-82.77 24.61,-123.06 l -13.43,2.23 c -88.37,83.91 -127.54,192.44 -196.89,287.52 -36.92,66.02 -88.37,125.35 -109.64,198.07 -4.47,5.6 -11.19,2.23 -15.65,3.32 -6.74,-17.91 14.54,-31.31 13.44,-51.46 46.97,-102.92 118.59,-193.53 165.56,-297.6 -34.7,32.46 -76.07,62.65 -117.47,86.14 -30.22,30.19 -36.92,73.81 -59.3,109.62 z m 364.7,-456.47 c 6.74,1.14 11.2,-2.26 16.79,-5.6 -20.12,-8.93 -38.03,2.26 -59.27,-5.59 -123.09,-34.69 -259.57,-30.21 -394.91,-44.74 77.17,52.59 155.46,111.87 260.65,90.62 60.43,-23.5 123.07,4.45 176.74,-34.69 z m 62.67,-42.49 c 1.12,-8.97 -7.85,-11.19 -11.19,-16.79 -71.61,-25.73 -139.85,-57.04 -217.05,-67.12 -109.62,-11.2 -214.8,4.48 -308.77,38.03 80.54,15.64 161.1,12.3 243.9,23.5 97.32,0 195.78,22.38 293.11,22.38 z m 17.91,241.64 c -13.45,69.39 -20.14,142.08 5.59,209.21 36.92,-46.97 33.55,-118.58 67.13,-166.67 36.92,-109.64 85.03,-213.71 145.43,-314.39 8.95,-31.29 44.76,-57.05 48.1,-86.15 l -5.59,-4.48 c -153.27,62.63 -209.21,226 -260.66,362.48 z m 191.3,40.26 c 29.1,-77.2 61.53,-152.15 77.19,-233.81 l 5.59,-5.6 c 3.34,-41.4 15.65,-79.43 11.17,-123.06 -53.69,77.18 -100.68,156.61 -137.58,241.67 -44.77,96.22 -70.5,204.72 -111.89,299.8 68.27,-40.26 140.99,-97.31 155.52,-179 z m -397.17,-609.74 c 214.8,0 423.99,-45.86 627.64,-88.37 -6.73,-13.41 -30.22,-7.83 -42.51,-19.02 -22.37,-6.71 -44.76,-13.42 -67.12,-19.01 -88.4,-33.58 -170.07,-5.6 -260.66,5.59 -105.16,12.31 -184.6,86.15 -279.71,123.07 36.9,40.25 82.77,52.57 129.78,72.72 123.08,16.76 211.45,-3.37 324.44,-34.72 67.13,-30.2 138.74,-46.99 199.14,-93.94 -8.92,2.22 -26.84,-4.48 -35.82,5.57 -118.58,27.98 -239.4,52.59 -366.95,61.54 -72.73,13.44 -145.42,6.73 -220.39,5.59 -5.61,-2.25 -12.32,-8.93 -13.44,-13.45 l 5.6,-5.57 z m 708.2,485.6 c 3.34,-22.39 6.71,-48.12 3.34,-69.39 l 4.49,-5.59 c -14.55,-137.6 39.14,-264.05 26.81,-402.76 0,-64.89 12.33,-140.97 11.19,-209.24 -101.79,138.74 -125.28,315.54 -134.26,485.56 7.87,70.5 5.63,165.61 88.43,201.42 z m 21.24,-7.85 c 43.63,-47.01 70.5,-109.65 89.51,-172.29 13.42,-67.13 19.01,-144.32 4.49,-217.03 57.04,-100.72 10.04,-215.94 -17.9,-314.4 -43.64,114.13 -40.31,261.8 -35.84,387.11 -10.08,10.06 -5.58,25.74 -10.08,36.93 -6.71,26.82 -21.21,52.56 -16.78,80.54 -7.83,42.52 3.38,86.15 -7.83,129.78 6.74,23.47 -11.17,42.52 -5.57,69.36 z M 3952.8,3321.7 c -2.23,97.35 24.62,184.6 99.57,247.24 l 19.01,29.11 c -13.41,-125.33 -33.53,-237.19 -86.13,-345.7 -14.53,-12.33 -50.35,-26.84 -32.45,-57.07 13.43,-10.06 -2.23,-22.36 -7.81,-31.3 -7.88,-11.19 -23.53,-2.26 -32.48,-8.95 -3.34,16.78 -17.9,41.4 2.26,53.69 5.61,45.85 93.98,62.64 38.03,112.98 z m 139.86,255.1 c 27.96,-80.6 24.61,-184.62 5.6,-268.51 -30.22,-72.73 -76.1,-138.74 -129.77,-201.38 -3.38,20.1 -5.6,35.79 3.31,53.68 10.07,24.63 73.86,33.54 42.51,78.29 -4.48,-1.12 -2.23,6.71 -2.23,10.08 27.96,70.49 57.05,140.96 63.76,220.4 13.44,32.43 6.74,73.86 16.82,107.44 z M 3971.83,2882 c -63.77,63.78 -132.01,124.2 -206.98,171.18 -41.4,13.41 -80.55,40.28 -126.39,34.68 -3.36,-19.01 17.88,-10.07 26.85,-15.67 116.33,-33.55 218.16,-129.77 298.72,-220.39 -42.51,36.91 -90.63,64.89 -145.46,74.94 -79.42,34.71 -140.95,110.78 -220.39,145.45 14.51,27.97 52.6,31.31 74.95,42.52 32.46,-3.35 66.02,-1.12 91.75,-21.25 17.93,-5.6 34.7,-15.67 51.46,-23.5 64.87,-52.57 121.94,-112.98 155.49,-187.96 z m 15.67,-45.86 c 6.71,47 26.84,89.48 48.09,130.91 62.67,88.35 73.86,212.58 185.72,266.25 2.23,5.58 8.95,11.18 15.66,11.18 -82.79,-143.17 -125.31,-302.06 -192.45,-451.99 -12.31,-17.88 -7.82,-48.07 -35.8,-55.94 -34.66,14.59 -21.22,66.02 -21.22,99.59 z m 300.94,247.24 c -29.08,-137.6 -78.31,-269.63 -195.78,-368.04 l -48.11,-11.2 c -2.23,21.24 12.32,43.6 17.93,64.87 13.42,26.84 29.09,53.68 38,82.79 27.98,61.52 41.43,128.65 72.72,187.95 7.86,40.26 36.93,72.73 45.89,112.98 h 2.25 c 14.53,34.69 33.56,70.48 55.94,99.59 15.64,-54.79 3.33,-114.11 11.16,-168.94 z m 34.67,-260.66 c -45.85,-14.54 -51.45,-64.87 -77.18,-97.34 -42.49,-57.07 -89.52,-113 -116.33,-176.74 -34.71,-62.67 -49.22,-136.53 -80.57,-199.15 -19.02,12.31 -26.87,36.92 -36.9,57.05 1.12,30.23 6.71,59.3 15.63,86.17 -2.23,27.97 16.79,53.67 24.64,80.54 26.85,73.86 77.2,140.99 130.92,201.39 39.11,35.77 90.56,36.91 139.79,48.08 z m 34.69,7.83 19.04,13.44 c -5.59,-64.89 -8.94,-142.11 -34.67,-201.38 -12.33,-32.45 -34.71,-50.34 -53.7,-80.57 -47,-81.68 -88.4,-192.45 -185.73,-228.23 h -10.05 c 10.05,34.69 21.24,74.97 32.42,113.02 32.44,70.44 51.46,153.27 115.22,206.96 35.81,60.4 50.34,138.7 117.47,176.76 z m -272.97,-550.42 31.33,21.24 c -24.61,-30.22 -36.91,-67.13 -58.19,-99.56 -7.86,-50.34 -57.06,-68.24 -76.07,-115.23 -27.98,22.38 -12.3,61.52 -13.41,93.96 21.24,48.12 60.38,94 116.34,99.59 z m -78.31,59.26 c 10.03,-16.76 22.35,-31.31 29.07,-48.09 -15.66,-8.94 -30.21,-23.47 -44.75,-35.8 7.84,19.04 21.27,51.47 15.68,83.89 z m -15.68,265.19 c 11.19,2.23 8.93,17.9 21.27,16.76 3.32,-1.12 7.82,-3.34 13.42,-3.34 8.94,-10.08 19.02,-23.5 10.06,-36.9 -8.94,-10.08 -23.48,-26.86 -40.27,-16.79 -6.7,11.17 -16.79,29.07 -4.48,40.27 z m -153.27,285.27 c 43.64,-13.44 90.65,-30.24 120.83,-64.87 l 2.23,-67.13 c -29.1,40.23 -78.31,91.74 -123.06,132 z m 88.4,-204.75 c -106.3,105.17 -247.26,126.42 -354.65,228.22 -53.72,33.57 -104.06,83.91 -163.36,110.76 -8.95,-19.04 21.21,-17.9 29.11,-32.45 108.49,-87.25 209.19,-182.35 335.63,-236.06 60.39,-31.32 104.01,-87.26 168.92,-107.39 l 8.95,-7.85 c -160,-35.8 -255.08,97.36 -387.14,134.25 -108.49,48.11 -154.35,159.98 -187.91,259.57 111.89,59.29 219.27,-22.37 316.58,-63.79 110.78,-60.41 183.47,-152.15 266.27,-249.45 -2.22,-34.73 58.18,-32.44 40.31,-70.5 -10.09,-12.32 -21.28,-19.01 -38.08,-15.66 0,6.72 -10.03,21.26 -2.23,32.45 -1.08,16.81 -20.09,14.55 -32.4,17.9 z m 158.86,-566.08 c -3.36,-35.82 -42.51,-51.47 -70.49,-59.29 -8.93,5.6 -11.2,1.14 -21.25,3.34 7.85,13.43 15.66,26.87 24.61,40.28 38.05,42.52 68.27,86.18 88.37,138.72 7.86,21.27 15.68,41.4 23.53,62.67 l -4.49,4.46 10.09,11.19 7.83,-7.82 c 5.57,-71.61 -23.53,-137.63 -58.2,-193.55 z m -145.44,-934.17 c -60.42,-24.61 -136.51,-31.33 -203.64,-34.7 -48.09,-8.93 -96.21,14.51 -147.7,10.09 -16.76,5.59 -31.32,11.18 -49.22,13.41 -36.92,16.8 -74.95,27.96 -109.66,51.46 l -2.22,15.67 c 174.57,-10.1 351.31,-29.09 512.44,-55.93 z m -416.18,109.65 c 31.31,17.87 78.31,8.9 115.24,19.01 126.37,5.6 238.26,-27.99 322.15,-120.83 -63.75,24.63 -139.84,38.03 -211.4,51.47 -101.84,13.41 -210.35,26.84 -312.13,23.5 23.49,21.24 57.04,26.85 86.14,26.85 z M 934.355,2506.1 c -120.835,63.78 -252.863,175.65 -316.617,303.18 -2.258,12.33 -5.597,21.27 -2.258,34.71 79.438,-41.42 189.075,-21.27 268.512,-69.38 80.571,-39.17 134.258,-120.82 195.788,-196.93 5.57,-20.13 25.72,-38.03 29.07,-61.52 -90.6,85.02 -204.729,123.05 -299.834,201.38 -51.457,39.17 -104.051,73.83 -158.871,105.15 -4.457,-2.25 -2.231,-7.84 -2.231,-11.17 127.551,-83.91 228.231,-198.05 364.736,-260.68 42.51,-21.24 74.98,-68.24 101.79,-98.42 -60.39,-6.73 -123.034,26.82 -180.085,53.68 z M 2884.37,693.66 c 5.6,42.531 7.84,93.992 -34.68,117.5 -42.51,38.02 -104.03,46.992 -134.25,97.352 11.2,12.308 24.61,-2.282 40.27,2.23 104.01,-39.172 225.98,-55.929 316.61,-132.031 52.61,0 117.47,-5.582 168.96,-26.809 8.9,6.707 12.3,16.789 19.02,24.61 10.04,16.777 35.82,33.558 42.51,51.449 -91.77,21.281 -194.67,17.898 -276.37,63.82 -46.99,33.551 -92.84,67.129 -155.52,51.449 -20.1,8.93 -41.39,13.422 -59.28,26.833 1.14,6.718 8.94,6.718 13.44,10.058 57.06,10.078 102.94,71.609 166.7,40.309 44.75,-54.821 100.68,-100.711 166.68,-123.059 54.84,-34.719 120.85,-21.269 182.37,-42.519 70.47,-2.243 153.28,-12.301 211.45,15.66 -33.58,32.418 -64.87,58.179 -96.23,91.738 -55.93,100.7 -163.34,145.44 -270.74,157.74 l 23.47,21.26 c 33.59,15.67 54.83,43.65 86.17,62.66 -3.34,-7.84 -2.24,-26.84 -2.24,-35.8 7.81,-19.01 33.56,-16.79 50.32,-13.42 20.16,8.92 7.86,29.07 11.2,43.6 l 32.46,-5.6 c 41.39,24.65 73.84,-25.69 111.87,-34.68 90.63,-44.74 201.39,-36.9 306.54,-30.21 53.68,11.2 108.53,21.27 161.08,35.81 8.96,4.47 24.64,7.84 26.86,17.9 -34.68,50.34 -88.4,99.56 -145.44,118.59 -142.08,61.54 -318.85,50.37 -447.51,-32.42 l -8.94,7.81 c 5.6,2.29 10.06,7.86 16.78,5.6 25.71,45.89 80.56,27.99 117.48,51.49 39.17,5.58 67.12,10.04 105.15,15.64 42.5,14.56 82.78,13.44 123.07,32.44 65.98,1.13 146.59,-5.57 210.31,15.67 95.12,15.68 161.1,88.4 243.91,134.26 15.65,7.81 35.81,10.07 48.08,22.38 -57.05,48.09 -125.31,90.61 -198.04,98.42 -73.83,23.53 -156.62,12.34 -237.18,11.2 -1.13,36.92 49.23,29.09 57.08,64.87 77.17,7.86 149.9,4.49 222.6,31.33 33.57,10.04 68.29,22.39 93.98,45.88 111.88,46.98 196.91,156.61 249.5,260.66 -1.14,17.9 21.24,38.02 5.6,48.08 -102.95,-11.17 -217.05,36.92 -308.8,-10.06 -11.19,-2.23 -19.03,-19.01 -32.44,-8.92 51.45,72.71 57.06,170.06 59.28,255.06 49.23,33.55 91.74,86.17 118.61,139.85 20.11,72.73 91.74,117.47 98.43,195.79 -2.24,69.38 15.66,123.05 16.77,185.7 l -13.4,-2.22 c -49.26,-35.82 -118.62,-30.22 -172.32,-45.89 3.37,22.39 31.32,35.8 32.46,59.28 35.8,60.42 61.52,125.32 69.36,198.03 12.31,86.15 -7.84,135.37 -23.51,212.59 h -13.41 c -117.47,-30.24 -199.16,-151.06 -231.61,-258.44 h -2.23 v -7.84 c -21.27,-29.11 -38.04,-62.67 -53.72,-90.63 l -5.59,4.48 3.37,49.22 c -10.07,20.11 -22.39,40.27 -24.64,63.77 58.19,43.63 86.16,107.41 123.07,166.68 72.72,92.86 57.07,246.16 32.43,351.32 -8.92,32.41 -36.89,55.93 -34.66,91.73 -10.09,-22.38 -33.59,-39.17 -42.52,-61.52 -42.5,-35.82 -70.47,-78.33 -99.57,-126.45 -4.48,23.54 -13.44,44.76 -13.44,69.39 19.04,164.46 -26.84,321.1 -126.39,446.4 h -5.61 c -15.65,-49.23 -54.8,-60.42 -88.37,-101.83 -15.67,-19.01 -19.04,-44.76 -32.44,-64.86 -16.79,-69.38 -2.26,-145.45 -2.26,-217.04 2.26,-15.67 15.66,-32.46 2.26,-45.88 -25.73,16.79 -49.23,34.69 -69.39,53.68 12.32,6.74 25.73,6.74 34.7,21.25 -1.11,11.19 2.23,22.38 -2.25,32.46 -8.95,17.9 -29.11,20.14 -49.2,19.02 6.71,124.2 -40.32,239.41 -80.58,351.28 -12.31,15.68 -11.19,36.93 -21.27,53.71 -32.41,82.8 -112.98,129.77 -180.11,187.93 -10.08,8.95 -10.08,27.96 -26.87,29.1 -43.6,-118.6 -55.93,-265.17 0,-383.72 20.14,-47 52.63,-91.74 62.67,-139.85 -36.91,11.19 -72.71,30.21 -99.56,57.05 1.12,33.57 -30.24,55.93 -53.71,69.38 -10.05,104.04 -36.88,212.57 -93.97,295.35 -50.32,132 -175.66,248.38 -312.14,281.95 -14.53,-114.14 8.94,-227.11 72.72,-316.62 -8.93,-4.48 -22.38,-3.34 -32.42,0 -90.63,41.43 -179,85.04 -289.75,78.32 -41.41,-12.3 -78.33,-10.08 -123.07,-13.42 1.11,-17.9 20.12,-24.63 32.44,-32.46 43.62,-32.44 46.99,-83.89 58.18,-126.4 -49.23,15.64 -97.34,35.8 -152.15,34.68 -21.28,10.06 -49.23,3.34 -67.13,16.8 70.47,91.73 158.86,189.04 161.1,310.99 h -8.95 c -42.51,-29.09 -105.16,-11.19 -157.75,-15.67 -91.75,-36.89 -171.17,-101.79 -249.49,-170.03 -69.35,-66.02 -167.81,-74.98 -231.59,-152.16 -33.55,-48.11 -35.77,-114.16 -90.6,-147.71 -12.3,6.74 -23.5,-1.13 -32.46,-8.93 -8.94,-6.72 -13.43,-23.5 -11.2,-34.69 -3.34,-8.94 -13.41,-16.77 -21.24,-13.45 14.53,70.5 71.61,124.2 93.97,191.33 27.98,58.19 -5.6,124.21 -2.23,179 2.23,16.78 16.79,33.55 10.07,49.23 -61.53,-24.61 -133.14,-24.61 -184.61,-72.73 -129.78,-152.16 -202.5,-341.24 -210.3,-544.84 23.5,-21.27 2.23,-50.34 -2.25,-72.73 -3.34,-23.49 14.53,-31.32 26.83,-45.85 2.26,-10.08 -4.47,-15.68 -5.59,-24.64 -53.7,-38.05 -87.25,-104.03 -134.25,-147.67 -6.71,6.7 -11.2,13.42 -13.43,22.36 49.23,43.63 78.32,110.75 99.57,174.54 19.02,135.36 -24.61,255.06 -80.54,370.29 -12.31,14.57 -7.83,40.29 -24.62,48.12 -74.97,-99.57 -134.26,-206.98 -120.83,-337.89 -19.02,-22.38 -38.04,16.79 -61.54,15.64 -6.71,-3.31 -5.59,-10.05 -5.59,-15.64 -41.38,-70.47 -50.345,-157.75 -55.934,-239.39 24.613,-89.51 32.464,-190.2 51.474,-279.7 -55.931,62.64 -126.404,92.83 -183.474,145.44 -19.02,10.06 -29.098,38.02 -48.114,34.67 -49.222,-93.97 -35.808,-204.72 13.418,-295.35 22.391,-62.64 99.567,-95.08 113.008,-161.1 21.25,-76.07 99.572,-115.21 155.512,-163.34 v -7.83 c 40.28,-64.9 66.01,-139.86 64.89,-218.17 l -24.61,57.07 c -15.68,31.3 -31.35,64.84 -50.37,96.2 -59.27,72.73 -127.547,126.43 -206.969,168.94 -81.664,57.06 -185.715,33.56 -279.687,61.53 13.422,-153.27 152.164,-278.58 271.855,-364.72 77.207,-31.34 147.68,-82.77 232.701,-96.2 26.87,-6.73 57.08,0 78.32,4.45 l 2.24,-34.68 c -25.73,-43.62 -48.09,-88.37 -42.52,-144.32 -3.34,-13.44 -3.34,-29.11 -11.17,-38.03 -1.13,-15.66 5.6,-33.58 -4.48,-45.88 -54.82,55.96 -123.063,93.97 -191.306,134.26 -45.882,30.2 -96.214,23.5 -147.695,16.78 -57.051,-6.73 -111.871,-17.92 -161.101,-43.62 12.304,-20.13 39.171,-34.69 53.707,-53.71 104.046,-143.17 270.742,-265.15 443.025,-281.94 17.91,-4.47 47,2.24 51.48,-23.49 -6.71,-12.33 -16.79,0 -24.61,0 -66.01,3.34 -140.97,40.28 -206.985,2.25 -6.703,-8.95 4.488,-17.9 11.199,-24.61 24.613,-41.43 31.324,-91.76 55.93,-130.93 44.746,-80.55 112.986,-153.29 201.386,-177.89 79.43,-10.06 134.25,-81.64 201.38,-111.86 10.05,-6.72 21.25,-6.72 30.21,-13.43 58.19,-3.38 106.27,-20.16 142.1,-70.5 -71.6,1.15 -128.66,31.33 -201.38,38.04 -113,39.17 -213.69,-30.22 -308.79,-72.7 v -11.2 c 81.69,-40.28 143.21,-114.11 220.39,-157.74 114.13,-38.04 251.75,-74.95 372.57,-40.3 62.67,-15.64 125.31,2.26 177.88,26.87 5.58,-13.45 19.04,-6.73 26.86,-16.79 -27.98,-20.12 -69.38,-21.24 -99.59,-42.51 -106.27,-27.95 -154.36,-133.14 -220.4,-201.378 48.12,-8.953 91.74,-4.481 139.86,-13.422 121.94,-12.328 234.95,-12.328 343.45,38.012 92.89,13.429 160.02,72.718 239.44,120.838 15.66,4.47 23.47,-8.95 34.67,-19.04 41.43,0 73.83,7.84 99.59,-26.82 -17.9,-43.65 -61.56,-8.98 -91.74,-26.881 -49.24,-23.488 -99.59,-45.847 -153.3,-59.289 -85.03,-38.007 -181.24,-49.199 -262.92,-96.211 -12.3,-30.207 -25.72,-63.769 -23.49,-97.328 h 15.65 c 71.6,33.559 146.56,54.828 222.66,74.949 20.1,-1.109 50.33,5.61 70.44,-4.48 16.79,-3.32 30.23,-6.719 44.77,2.281 44.75,53.66 109.64,59.239 172.29,69.36 5.59,-15.68 -8.98,-30.211 -7.83,-48.09 -7.87,-30.242 4.45,-68.27 -7.87,-93.969 -25.7,10.047 -33.56,39.148 -51.46,53.688 -25.73,10.039 -44.74,-13.457 -67.13,-21.258 -17.9,-17.93 -45.88,-34.723 -55.93,-55.93 59.31,-36.91 112.99,-104.043 187.96,-102.961 38.03,-4.48 79.41,4.5 101.8,40.289 63.78,62.672 -2.23,159.992 45.87,228.231 14.55,-1.11 23.49,-16.801 36.93,-17.899 41.37,-60.433 120.78,-35.812 161.07,-93.972 4.47,-16.801 33.57,-20.141 26.84,-38.059 -54.8,22.371 -120.79,17.918 -168.93,-15.629 -16.78,-30.223 -12.3,-74.98 -13.41,-105.152 h 34.66 c 63.79,16.761 109.63,1.109 174.54,13.422" /><path
         id="path124"
         style="fill:#f68c15;fill-opacity:1;fill-rule:nonzero;stroke:none"
         d="m 1268.06,2573.72 c -2.85,-1.65 -5.62,-3.56 -8.15,-6.07 3.67,0.72 6.1,3.15 8.15,6.07" /><path
         id="path126"
         style="fill:#f68c15;fill-opacity:1;fill-rule:nonzero;stroke:none"
         d="m 4403.69,2086.55 c 1.7,-1.71 4.72,-2.86 5.49,-5.33 0.74,1.78 1.59,3.52 2.33,5.33 h -7.82" /><path
         id="path128"
         style="fill:#f68c15;fill-opacity:1;fill-rule:nonzero;stroke:none"
         d="m 4409.28,2078.74 c 0.23,0.98 0.12,1.79 -0.1,2.48 -0.44,-1.04 -0.89,-2.06 -1.33,-3.08 0.47,0.19 0.94,0.44 1.43,0.6" /><path
         id="path130"
         style="fill:#f68c15;fill-opacity:1;fill-rule:nonzero;stroke:none"
         d="m 3950.57,674.672 c 17.92,-12.301 19.03,-31.332 23.49,-48.109 -1.12,-23.481 -15.66,-46.981 -36.93,-57.043 -17.9,-11.207 -39.15,-2.231 -57.04,3.359 -15.66,8.902 -26.84,24.601 -29.1,42.48 -3.35,21.25 3.34,39.161 15.67,53.704 21.25,17.91 60.42,23.507 83.91,5.609 v 0" /><path
         id="path132"
         style="fill:#f68c15;fill-opacity:1;fill-rule:nonzero;stroke:none"
         d="M 1482.54,639.992 1319.22,317.789 c 50.34,-26.848 112.98,-63.758 171.18,-30.207 72.7,61.527 125.28,148.758 112.98,249.457 -19.01,52.602 -74.96,82.82 -120.84,102.953 z m 126.42,-62.679 c 54.83,-49.204 73.85,-127.493 55.95,-192.422 -15.65,-61.539 -77.2,-120.828 -139.86,-132.032 -125.28,-21.218 -214.8,61.563 -316.62,105.18 l 3.37,7.863 c 14.54,0 23.5,-11.203 36.93,-13.453 57.05,107.403 114.12,213.692 166.69,322.192 -7.83,16.789 -39.16,7.851 -32.45,29.101 78.32,-34.672 157.77,-67.101 225.99,-126.41 v -0.019" /><path
         id="path134"
         style="fill:#f68c15;fill-opacity:1;fill-rule:nonzero;stroke:none"
         d="m 3590.34,572.879 c -58.2,41.371 -134.26,14.512 -185.75,-19.039 l 151.04,-325.578 67.13,32.461 c 48.11,31.297 74.96,85.027 61.54,142.078 -20.13,61.531 -41.39,121.969 -93.96,170.078 z m 134.24,-38.066 c 32.44,-48.094 41.41,-126.403 13.45,-180.114 -59.29,-110.75 -184.6,-133.117 -281.95,-187.957 -10.09,21.27 21.24,14.559 29.1,26.879 -47,111.859 -97.34,221.481 -152.18,330.039 l -38.05,-13.469 -2.23,8.95 c 119.73,57.05 324.45,183.511 431.86,15.672 v 0" /><path
         id="path136"
         style="fill:#f68c15;fill-opacity:1;fill-rule:nonzero;stroke:none"
         d="m 2081.09,427.43 c -2.23,-39.168 -25.7,-77.2 -32.43,-118.598 h -13.43 c -12.3,43.617 7.83,104.039 -36.91,131.988 -45.89,13.422 -91.74,26.871 -137.63,40.301 -14.53,-53.691 -33.54,-106.301 -50.34,-158.879 19.01,-10.07 40.27,-16.793 61.54,-21.273 40.26,-10.059 54.81,41.402 78.32,57.07 h 7.82 c -11.2,-51.457 -30.21,-106.297 -45.88,-158.859 h -15.66 c -2.24,34.66 6.71,74.941 -30.2,91.73 l -59.3,15.672 -53.68,-172.293 c 23.5,-12.309 52.58,-21.25 80.57,-29.098 30.21,-4.461 63.75,-30.2222 91.74,-5.6012 30.2,26.8712 54.81,60.4222 78.28,91.7422 h 10.09 C 2009.5,144.359 1989.38,97.3906 1977.09,51.5117 1862.95,81.7109 1753.33,119.77 1641.46,153.332 l 2.23,7.82 c 12.3,-3.351 26.86,-3.351 38.06,-10.05 39.14,116.339 71.58,233.82 107.39,351.289 l -38.04,13.398 2.25,7.871 c 110.71,-30.25 218.1,-64.941 327.74,-96.23 v 0" /><path
         id="path138"
         style="fill:#f68c15;fill-opacity:1;fill-rule:nonzero;stroke:none"
         d="m 2253.37,387.109 c -21.24,-118.57 -34.65,-239.379 -51.44,-360.2184 60.41,-10.0703 140.96,-21.26951 182.36,35.7891 43.63,74.9923 67.13,180.1523 22.36,262.9103 -36.92,44.769 -96.19,57.101 -153.28,61.519 z m 247.27,-118.57 c 26.85,-71.609 13.45,-161.098 -45.88,-214.8085 -101.79,-88.3907 -253.94,-35.8282 -373.67,-23.5 v 7.8281 c 16.79,7.8633 44.74,-16.7578 45.88,11.2031 l 48.09,345.7073 c -8.94,15.652 -27.96,3.312 -40.26,11.16 v 10.082 c 132,-24.609 295.34,-8.91 365.84,-147.672 v 0" /><path
         id="path140"
         style="fill:#f68c15;fill-opacity:1;fill-rule:nonzero;stroke:none"
         d="m 2900.04,352.449 -36.91,-166.719 128.65,24.641 c -27.99,48.09 -61.53,94 -91.74,142.078 z m 260.69,-271.8474 29.09,3.3476 c 0,-3.3476 0,-6.7187 3.35,-7.8281 l -7.83,-5.6016 c -51.48,-4.4687 -99.58,-24.6289 -147.7,-24.6289 3.34,17.9219 33.56,8.9297 48.09,19.0508 -24.62,44.7306 -53.69,88.3596 -80.58,131.9606 -49.2,-11.172 -100.68,-15.632 -147.66,-32.41 -10.06,-47.023 -17.92,-93.9725 -30.22,-139.8514 19.01,-2.25 40.28,3.3516 59.27,5.5899 4.49,-4.461 2.25,-11.1797 3.37,-16.7891 L 2773.56,0 v 13.4414 c 12.31,6.7188 32.44,-3.3398 38.04,13.4492 26.84,129.7814 53.67,260.6724 80.54,389.3204 55.94,44.75 61.53,-33.551 91.77,-58.18 L 3160.73,80.6016" /><path
         id="path142"
         style="fill:#f68c15;fill-opacity:1;fill-rule:nonzero;stroke:none"
         d="m 3302.81,308.832 c 6.7,-22.391 5.59,-44.769 -7.86,-63.793 -17.9,-19.008 -44.77,-26.84 -69.37,-19.008 -19.03,3.328 -29.1,23.489 -38.05,38 -5.58,17.93 -2.22,38.051 7.87,53.719 17.9,23.492 44.73,31.313 72.71,23.492 13.43,-6.672 30.22,-16.762 34.7,-32.41" /></g></g></svg>