<?xml version="1.0" encoding="UTF-8" standalone="no"?>
<svg
   id="katman_1"
   data-name="katman 1"
   version="1.1"
   viewBox="0 0 797.8 344.3"
   sodipodi:docname="apple-seeklogo.svg"
   inkscape:version="1.1 (c4e8f9e, 2021-05-24)"
   xmlns:inkscape="http://www.inkscape.org/namespaces/inkscape"
   xmlns:sodipodi="http://sodipodi.sourceforge.net/DTD/sodipodi-0.dtd"
   xmlns="http://www.w3.org/2000/svg"
   xmlns:svg="http://www.w3.org/2000/svg">
  <sodipodi:namedview
     id="namedview25"
     pagecolor="#ffffff"
     bordercolor="#666666"
     borderopacity="1.0"
     inkscape:pageshadow="2"
     inkscape:pageopacity="0.0"
     inkscape:pagecheckerboard="0"
     showgrid="false"
     inkscape:zoom="1.4126348"
     inkscape:cx="384.03416"
     inkscape:cy="172.37293"
     inkscape:window-width="1296"
     inkscape:window-height="1003"
     inkscape:window-x="0"
     inkscape:window-y="25"
     inkscape:window-maximized="0"
     inkscape:current-layer="katman_1" />
  <defs
     id="defs4">
    <style
       id="style2">
      .cls-1 {
        fill: #010101;
      }

      .cls-1, .cls-2 {
        stroke-width: 0px;
      }

      .cls-2 {
        fill: #000;
      }
    </style>
  </defs>
  <g
     id="g10"
     style="fill:#a7a9ac;fill-opacity:1">
    <path
       class="cls-2"
       d="M316.6,227.8v.6c-.6,1.6-1.1,3.2-1.7,4.7-4.6,12.6-11.1,24.1-19.1,34.9-3.9,5.3-7.9,10.4-12.9,14.9-8.1,7.2-17.3,9.9-27.9,7.5-4.1-.9-7.8-2.6-11.6-4.3-12.3-5.5-24.8-5.7-37.3-.7-3.6,1.4-7.2,3-10.8,4.3-5.2,1.8-10.6,2.5-16,1.4-5.2-1.1-9.5-3.9-13.5-7.3-4.9-4.3-8.8-9.3-12.8-14.4-8.8-11.3-15.9-23.5-20.9-36.9-6.9-18.2-10.7-36.9-9.6-56.4.5-9.3,2.4-18.4,6-27,6.4-15,16.6-26.5,31.7-33.1,11.9-5.2,24.2-6.4,36.7-2,5.2,1.8,10.2,3.8,15.3,5.8,5.6,2.2,11.2,2.4,16.8.2,4.5-1.8,9-3.5,13.5-5.1,9-3.4,18.3-4.9,27.9-3.7,12,1.4,22.7,5.7,31.7,13.9,3.1,2.8,5.8,5.9,8.2,9.3-2.5,2-5.1,3.8-7.4,5.8-17.4,15.2-22.1,37.2-15.5,57,4.2,12.7,12.8,21.9,24.2,28.5,1.6.9,3.3,1.6,5,2.4Z"
       id="path6"
       style="fill:#a7a9ac;fill-opacity:1" />
    <path
       class="cls-2"
       d="M266.8,52.8c.8,4.2.5,8.2-.2,12.2-2.5,13.4-8.8,24.5-19.4,33-5.6,4.5-12,7.7-19.1,9.2-2.7.6-5.4.8-8.1.5-.7,0-1.1-.3-1.2-1.1-.7-4.7-.1-9.3,1.2-13.8,4.6-16.1,14.4-27.8,29.4-35.3,5.1-2.5,10.4-4.2,16-4.7.5,0,.9,0,1.5,0Z"
       id="path8"
       style="fill:#a7a9ac;fill-opacity:1" />
  </g>
  <g
     id="g22"
     style="fill:#a7a9ac;fill-opacity:1">
    <path
       class="cls-1"
       d="M396.8,136.3h-11.5l-33.3,91.5h15l8.4-24.7h35.3l8.4,24.7h15l-33.2-91.5h-3.9ZM379.2,191.7l13.6-40.2h.3l13.6,40.2h-27.5Z"
       id="path12"
       style="fill:#a7a9ac;fill-opacity:1" />
    <path
       class="cls-1"
       d="M492,164.1c-4.2-2.8-9.1-4.2-14.8-4.2s-6.1.5-8.7,1.5c-2.7,1-5,2.5-7.1,4.4s-3.7,4.2-5,6.8h-.3v-11.4h-13.8v88.9h13.8v-33.4h.3c1.4,2.6,3.1,4.8,5.1,6.7,2.1,1.9,4.5,3.3,7.2,4.3,2.7,1,5.7,1.5,8.8,1.5,5.6,0,10.4-1.4,14.6-4.2,4.1-2.8,7.4-6.8,9.7-12,2.3-5.2,3.5-11.3,3.5-18.4h0c0-7.2-1.1-13.3-3.4-18.5-2.3-5.2-5.5-9.2-9.7-12ZM491,194.5c0,4.6-.7,8.7-2.1,12.1-1.4,3.4-3.4,6.1-6,7.9-2.6,1.8-5.7,2.8-9.3,2.8s-6.5-.9-9.2-2.8c-2.6-1.9-4.7-4.5-6.2-7.9-1.5-3.4-2.3-7.4-2.3-12h0c0-4.7.8-8.7,2.2-12.1,1.5-3.4,3.6-6,6.2-7.9,2.7-1.9,5.7-2.8,9.2-2.8s6.7.9,9.3,2.7c2.6,1.8,4.6,4.4,6,7.9,1.4,3.4,2.1,7.5,2.1,12.2h0Z"
       id="path14"
       style="fill:#a7a9ac;fill-opacity:1" />
    <path
       class="cls-1"
       d="M565.4,164.1c-4.2-2.8-9.1-4.2-14.8-4.2s-6.1.5-8.7,1.5c-2.7,1-5,2.5-7.1,4.4s-3.7,4.2-5,6.8h-.3v-11.4h-13.8v88.9h13.8v-33.4h.3c1.4,2.6,3.1,4.8,5.1,6.7,2.1,1.9,4.5,3.3,7.2,4.3,2.7,1,5.7,1.5,8.8,1.5,5.6,0,10.4-1.4,14.6-4.2,4.1-2.8,7.4-6.8,9.7-12,2.3-5.2,3.5-11.3,3.5-18.4h0c0-7.2-1.1-13.3-3.4-18.5-2.3-5.2-5.5-9.2-9.7-12ZM564.5,194.5c0,4.6-.7,8.7-2.1,12.1-1.4,3.4-3.4,6.1-6,7.9-2.6,1.8-5.7,2.8-9.3,2.8s-6.5-.9-9.2-2.8c-2.6-1.9-4.7-4.5-6.2-7.9-1.5-3.4-2.3-7.4-2.3-12h0c0-4.7.8-8.7,2.2-12.1,1.5-3.4,3.6-6,6.2-7.9,2.7-1.9,5.7-2.8,9.2-2.8s6.7.9,9.3,2.7c2.6,1.8,4.6,4.4,6,7.9,1.4,3.4,2.1,7.5,2.1,12.2h0Z"
       id="path16"
       style="fill:#a7a9ac;fill-opacity:1" />
    <rect
       class="cls-1"
       x="589.6"
       y="136.3"
       width="13.8"
       height="91.5"
       id="rect18"
       style="fill:#a7a9ac;fill-opacity:1" />
    <path
       class="cls-1"
       d="M675.5,193.3c0-6.7-1.2-12.5-3.7-17.6-2.5-5-5.9-9-10.4-11.7-4.5-2.8-9.9-4.2-16.1-4.2s-11.6,1.4-16.2,4.3c-4.6,2.9-8.2,7-10.7,12.2-2.5,5.2-3.8,11.3-3.8,18.2h0c0,7.1,1.3,13.2,3.8,18.4,2.5,5.2,6.1,9.2,10.8,12,4.7,2.8,10.3,4.2,16.8,4.2s7.7-.5,11-1.6c3.3-1.1,6.2-2.6,8.6-4.5,2.4-1.9,4.4-4.1,5.9-6.5,1.5-2.4,2.6-4.9,3.1-7.5v-.7c.1,0-12.9,0-12.9,0l-.2.5c-.5,1.7-1.5,3.2-2.9,4.6s-3.1,2.5-5.2,3.3c-2.1.8-4.5,1.2-7.2,1.2s-6.9-.8-9.6-2.4c-2.7-1.6-4.8-4-6.2-7-1.4-2.9-2.1-6.4-2.2-10.4h47.2v-4.6ZM630.5,180.6c1.5-3.1,3.5-5.5,6.1-7.1,2.6-1.6,5.5-2.4,8.7-2.4s6.2.8,8.7,2.3c2.5,1.5,4.5,3.8,5.9,6.9,1,2.2,1.7,4.9,2,8h-33.4c.3-2.9,1-5.5,2-7.7Z"
       id="path20"
       style="fill:#a7a9ac;fill-opacity:1" />
  </g>
</svg>
