<svg xmlns:inkscape="http://www.inkscape.org/namespaces/inkscape" xmlns:sodipodi="http://sodipodi.sourceforge.net/DTD/sodipodi-0.dtd" xmlns="http://www.w3.org/2000/svg" xmlns:svg="http://www.w3.org/2000/svg" version="1.1" id="Layer_1" x="0px" y="0px" style="enable-background:new 0 0 1000 196.9;" xml:space="preserve" sodipodi:docname="Dropbox_logo_2017 copy.svg" inkscape:version="1.1 (c4e8f9e, 2021-05-24)" viewBox="0 0 231.7 196.9"><defs id="defs18"/><sodipodi:namedview id="namedview16" pagecolor="#ffffff" bordercolor="#666666" borderopacity="1.0" inkscape:pageshadow="2" inkscape:pageopacity="0.0" inkscape:pagecheckerboard="0" showgrid="false" inkscape:zoom="1.127" inkscape:cx="500" inkscape:cy="98.047915" inkscape:window-width="2084" inkscape:window-height="1003" inkscape:window-x="0" inkscape:window-y="25" inkscape:window-maximized="0" inkscape:current-layer="Layer_1" inkscape:snap-page="false"/>
<style type="text/css" id="style2">
	.st0{fill:#0061FF;}
	.st1{display:none;}
	.st2{display:inline;}
	.st3{fill:none;}
</style>
<path class="st0" d="M116,37l-58,37l58,37l-58,37L0,110.8l58-37L0,37L58,0L116,37z M57.7,159.9l58-37l58,37l-58,37L57.7,159.9z   M116,110.8l58-37L116,37l57.7-37l58,37l-58,37l58,37l-58,37L116,110.8z" id="path4"/>

<g id="Editble" class="st1">
	<g class="st2" id="g12">
		<rect x="233" y="71.6" class="st3" width="506" height="71.8" id="rect8"/>
		<path d="M338.2,80.2h16.3c10.4,0,19,6.1,19,19.8v2.9c0,13.8-8,20-18.7,20h-16.6V80.2z M347.4,87.9v27.2h7c5.9,0,9.9-3.9,9.9-12.5    v-2.2c0-8.6-4.1-12.5-10.2-12.5H347.4z M378.4,88.4h7.3l1.1,8c1.4-5.5,4.9-8.3,11.3-8.3h2.2v9.2h-3.7c-7.4,0-9.2,2.6-9.2,9.9V123    h-9C378.4,123,378.4,88.4,378.4,88.4z M402.3,106.4v-1c0-11.6,7.4-17.9,17.5-17.9c10.3,0,17.5,6.4,17.5,17.9v1    c0,11.4-7,17.5-17.5,17.5C408.6,123.9,402.3,117.8,402.3,106.4z M428.1,106.3v-0.8c0-6.5-3.2-10.3-8.3-10.3c-5,0-8.4,3.5-8.4,10.3    v0.8c0,6.2,3.2,9.7,8.3,9.7C424.9,116,428.1,112.6,428.1,106.3z M442,88.4h7.6l0.9,6.6c1.9-4.4,5.7-7.4,11.4-7.4    c8.8,0,14.6,6.4,14.6,18v1c0,11.4-6.4,17.3-14.6,17.3c-5.5,0-9.2-2.5-11-6.5v17.5H442V88.4z M467.3,106.4v-0.8    c0-6.9-3.5-10.3-8.3-10.3c-5,0-8.4,3.8-8.4,10.3v0.7c0,6.1,3.2,10,8.2,10C464,116.1,467.3,112.7,467.3,106.4z M489.7,116.7    L489,123h-7.8V76.8h8.8v17.8c1.9-4.5,5.8-7,11.2-7c8.2,0.1,14.3,5.8,14.3,17.3v1c0,11.5-5.8,18-14.6,18    C495.3,123.9,491.5,121.1,489.7,116.7z M506.5,105.9v-0.8c0-6.4-3.5-9.8-8.3-9.8c-5,0-8.4,4-8.4,10v0.7c0,6.5,3.3,10.2,8.3,10.2    C503.3,116.1,506.5,112.7,506.5,105.9z M519.6,106.4v-1c0-11.6,7.4-17.9,17.5-17.9c10.3,0,17.5,6.4,17.5,17.9v1    c0,11.4-7.1,17.5-17.5,17.5C525.9,123.9,519.6,117.8,519.6,106.4z M545.4,106.3v-0.8c0-6.5-3.2-10.3-8.3-10.3    c-5,0-8.4,3.5-8.4,10.3v0.8c0,6.2,3.2,9.7,8.3,9.7C542.2,116,545.4,112.6,545.4,106.3z M566.3,105l-12.1-16.7h10.4l7,10.4    l7.1-10.4H589l-12.3,16.6l13,18h-10.2l-8-11.5l-7.7,11.5h-10.6L566.3,105z" id="path10"/>
	</g>
</g>
</svg>