<svg version="1.2" xmlns="http://www.w3.org/2000/svg" viewBox="0 0 1432 651" width="1432" height="651">
	<title>JPM_BIG copy-svg</title>
	<style>
		.s0 { fill: #000000 } 
	</style>
	<path id="Layer" fill-rule="evenodd" class="s0" d="m1374.1 517q19.2 7.9 57.2 10.2v10.6h-285.6v-10.6q37.8-2.3 57.3-10.2 19.2-7.7 26.5-24.9 7.6-16.8 7.6-49.9v-344.9h-2.3l-196 450.8h-2.3l-210.1-449.5h-2.3v343.6q0 33.1 7.9 49.9 7.6 17.2 26.5 24.9 19.2 7.9 56.9 10.2v10.6h-217.8v-10.6q37.8-2.3 57-10.2 18.8-7.7 26.4-24.9 8-16.8 8-49.9v-345.9q0-33.1-8-50.3-7.6-16.9-26.4-24.5-19.2-7.9-57-10.3v-10.5h195.6l178.4 389.2 173.4-389.2h186.3v10.5q-38 2.4-57.2 10.3-19.5 7.6-27.1 25.2-8 17.2-7.7 49.6v345.9q-0.3 33.1 7.7 49.9 7.6 17.2 27.1 24.9zm-911.8-213.5v138.7q0 32.4 9.3 49.6 9.6 17.5 31.1 25.2 21.9 7.9 65.9 10.2v10.6h-299.9v-10.6q38.1-2.3 57-10.2 19.1-7.7 26.8-24.9 7.6-16.8 7.6-49.9v-343.6c0-70.5-31.8-85-80.4-85-53.3 0-86.1 14.2-86.1 82.7v384.3c0 86.7-56.6 169.4-168.1 169.4q-12.9 0-25.5-1.6v-9.3c26.5-1.7 48-10.6 64.2-27.2q27.1-27.4 27.1-90v-425.6q0-32.4-7.6-50-7.9-17.2-27.1-25.1-19.2-7.6-56.6-10v-10.9h529.2c120.4 0 194.9 60.3 194.9 150.9 0 104-101.9 152.3-193.3 152.3zm0-20.5h36.8c62.9 0 115.8-36.8 115.8-131.1 0-114.8-76.1-130.7-113.8-130.7h-38.8z"/>
</svg>